<svg width="1200" height="630" version="1.1" viewBox="0 0 317.5 166.69" xmlns="http://www.w3.org/2000/svg">
 <rect y="5.25e-6" width="317.5" height="166.69" fill="#fff"/>
 <rect x=".036875" y=".036875" width="91.636" height="166.61" fill="#1976d2" stroke="#c93" stroke-width=".07375"/>
 <g transform="translate(-81.134 -115.14)" fill="#fff">
  <g transform="translate(1.0583)" stroke-width=".26458">
   <path d="m95.357 139.36c-0.63063-0.73733-0.76508-1.8626-0.3206-2.6836 0.40496-0.74801 0.34605-1.1365-0.58255-3.8405-0.93762-2.7303-1.1164-3.0496-1.9348-3.4548-1.9168-0.94902-1.7658-3.4525 0.24143-4.0009 1.8921-0.51705 3.3738 1.386 2.4179 3.1056-0.41617 0.74931-0.36062 1.1128 0.59326 3.8651 0.96902 2.796 1.1255 3.0716 1.9638 3.4568 1.1926 0.54813 1.6205 1.8835 0.96913 3.0246-0.65031 1.1394-2.5661 1.4412-3.3476 0.52754zm1.9118-1.003c0.46456-0.3801 0.42542-0.79596-0.10341-1.0978-0.23785-0.13576-0.54429-0.18595-0.68098-0.11152-0.42252 0.23003-0.40686 1.0139 0.0252 1.2605 0.22572 0.12884 0.56735 0.10586 0.75919-0.0511zm-3.4926-10.357c0.34651-0.18865 0.22405-1.0774-0.18024-1.3081-0.33671-0.19219-0.99428 0.26889-0.97968 0.68691 0.01353 0.38618 0.80904 0.81225 1.1599 0.62119z"/>
   <path d="m103.11 138.83c-0.63064-0.73733-0.76508-1.8626-0.3206-2.6836 0.40496-0.74801 0.34605-1.1365-0.58255-3.8405-0.93762-2.7303-1.1164-3.0496-1.9348-3.4548-1.9168-0.94902-1.7658-3.4525 0.24142-4.0009 1.8921-0.51705 3.3738 1.386 2.4179 3.1056-0.41617 0.74931-0.36062 1.1128 0.59326 3.8651 0.96902 2.796 1.1255 3.0716 1.9638 3.4568 1.1926 0.54813 1.6205 1.8835 0.96913 3.0246-0.65031 1.1394-2.5661 1.4412-3.3476 0.52754zm1.9118-1.003c0.46456-0.3801 0.42542-0.79596-0.10341-1.0978-0.23786-0.13576-0.54429-0.18595-0.68099-0.11152-0.42252 0.23003-0.40686 1.0139 0.0252 1.2605 0.22572 0.12884 0.56735 0.10586 0.75919-0.0511zm-3.4926-10.357c0.34651-0.18865 0.22405-1.0774-0.18024-1.3081-0.33671-0.19219-0.99428 0.26889-0.97968 0.68691 0.0135 0.38618 0.80904 0.81225 1.1599 0.62119z"/>
   <path d="m95.708 140.05c-2.027-1.187-1.3003-4.1847 1.0144-4.1847 0.7506 0 0.81658-0.17688 1.8641-1.169s2.8331-2.6274 4.0355-3.2215c0.32332 0.45905 0.57081 1.6145 0.607 1.7479-0.77291 0-2.7507 1.5148-3.5888 2.5375-0.80994 0.98843-0.98477 1.4007-0.92793 2.188 0.0528 0.73055-0.0809 1.111-0.5411 1.5406-0.77949 0.72771-1.7869 0.95723-2.4632 0.56118zm1.56-1.6951c0.21504-0.5604-0.0251-0.90216-0.63401-0.90216-0.59477 0-0.89658 0.40871-0.69321 0.93871 0.19783 0.51552 1.1252 0.48999 1.3272-0.0366z"/>
   <path d="m104.35 135.89s0.28317-0.56489 1.3917-3.717c1.4404-4.0772 1.5089-4.4064 1.0963-5.2625-0.88721-1.8407 0.83445-3.684 2.6908-2.8809 0.69419 0.30034 0.93102 0.58581 1.236 1.4898 0.33189 0.9839 0.3026 1.1906-0.24399 1.7204-0.34168 0.33116-0.89596 0.71649-1.2317 0.85629-0.47046 0.19599-0.97173 1.2549-2.1856 4.6178-1.4426 3.9967-1.06 2.8174-0.67075 3.5415 0.96203 1.7894-0.25941 0.49189-2.0826-0.36539zm5.0658-9.8494c-6e-3 -0.60021-0.35551-0.82955-0.92164-0.60535-0.25463 0.10083-0.48532 0.30869-0.51265 0.46191-0.0845 0.47361 0.53722 0.95124 0.99974 0.76807 0.24164-0.0957 0.43719-0.37678 0.43455-0.62463z"/>
  </g>
  <path d="m118.62 139.4q-2.378 0.36279-4.2325-0.92219-1.9687-1.3696-2.3075-3.9527-0.41272-3.147 0.97845-5.9848 1.5566-3.1506 4.4406-3.5906 2.7744-0.42327 4.3002 0.71702 1.592 1.1858 1.988 4.2056 0.41271 3.147-0.84107 5.9175-1.4422 3.1703-4.3262 3.6103zm-0.87636-12.586q-2.066 0.31521-3.2086 2.7532-1.0568 2.2394-0.7347 4.6952 0.2302 1.7554 1.5804 2.672 1.2913 0.86063 2.9947 0.60077 2.0492-0.31263 3.0893-2.7443 0.92782-2.1733 0.60218-4.6564-0.28509-2.1738-1.3031-2.9184-0.97108-0.71466-3.0203-0.40203z"/>
  <path d="m127.86 124.81c-0.25722 0-0.47457 0.0917-0.65215 0.27544-0.1715 0.18372-0.25735 0.40742-0.25735 0.67076 0 1.2237-0.0381 3.081-0.10129 5.3542 0.31763-0.50907 0.77309-0.84657 1.2712-0.89658 0.16266-0.0163 0.31758-0.0145 0.46612 1e-3 0.0165-0.48496 0.043-1.0374 0.0822-1.6846 0.0734-1.2554 0.11007-2.18 0.11007-2.774 0-0.26334-0.0891-0.48704-0.26665-0.67076-0.17149-0.18368-0.38884-0.27544-0.65216-0.27544zm6.8254 0.15606c-0.2572 0-0.48994 0.11928-0.69815 0.35812l-2.6365 3.0592c-0.69811 0.7931-1.343 1.4876-1.9436 2.0996 0.54642 0.3209 0.91392 0.88 1.0738 1.479 0.9448-0.92517 1.8867-1.8472 2.7714-2.8164 1.58-1.7515 2.3699-2.8292 2.3699-3.2334 0-0.26334-0.0949-0.48704-0.28474-0.67076-0.18985-0.18368-0.40718-0.27544-0.65215-0.27544zm-4.208 8.3065c-0.1198 0.37861-0.35227 0.70706-0.7121 0.92036-0.23806 0.14112-0.49325 0.22494-0.75395 0.25942l2.3301 2.3456c1.7208 1.6351 3.0467 2.4526 3.9775 2.4526h5.3e-4c0.26334 0 0.47428-0.11662 0.63355-0.34933 0.12851-0.18985 0.19327-0.38865 0.19327-0.59686 0-0.44705-0.24226-0.75024-0.72605-0.90951-0.4042-0.13473-0.78058-0.3367-1.1296-0.60616l-0.9648-0.80874c-1.1679-1.0767-2.1293-1.9911-2.8484-2.7073zm-3.6897 0.22945c-0.0581 2.1426-0.094 3.9254-0.094 5.1051 0 0.29396 0.0853 0.56643 0.25683 0.81752 0.20821 0.30626 0.48705 0.45941 0.83612 0.45941 0.53281 0 0.79944-0.30322 0.79944-0.90951l8e-3 -4.5093c-0.60589-0.039-1.2082-0.32449-1.664-0.78342-0.0525-0.0621-0.0988-0.12148-0.14262-0.17983zm1.3327-3.2882c2.3372-0.23457 3.2558 3.0244 1.6449 3.9794-0.91212 0.5407-2.0763 0.25255-2.8349-0.51137-0.47304-0.5593-0.58893-0.94548-0.47004-1.5638 0.20135-1.0472 0.88033-1.826 1.6602-1.9043zm-0.26242 2.2887c0.15632 0.57954 0.55163 0.71431 1.0437 0.35569 0.48066-0.35031 0.48385-0.85836 7e-3 -1.1669-0.46349-0.30011-1.1979 0.26667-1.051 0.81127z"/>
  <path d="m149.3 139.76c-0.2817 0-0.52973-0.0796-0.74405-0.23884-0.24498-0.18372-0.36745-0.41031-0.36745-0.67978-0.2817-0.741-0.4593-1.3442-0.53279-1.8096-0.0734-0.46544-0.31538-1.7852-0.72571-3.9592-0.31232-1.6474-0.52054-2.9702-0.62465-3.9684-0.54503 2.0209-1.1299 3.7326-1.7545 5.135-0.72263 1.6229-1.1911 2.8936-1.4055 3.8122 0.0734 0.14079 0.11022 0.27864 0.11022 0.41337 0 0.27558-0.12248 0.50217-0.36745 0.67977-0.22048 0.16532-0.47157 0.24802-0.75327 0.24802-0.82675 0-1.2401-0.37051-1.2401-1.1115l-0.28478-1.1666-1.0013-4.5012c-0.39806-1.5188-1.0778-3.6958-2.0393-6.5313-0.0428-0.13474-0.0643-0.25722-0.0643-0.36745 0-0.56953 0.32152-0.8543 0.96453-0.8543 0.39806 0 0.70427 0.2174 0.91862 0.65221 0.11021 0.22047 0.33374 0.85432 0.67058 1.9015 0.36132 1.1084 0.72264 2.4435 1.084 4.0051l0.89105 4.0602c0.65528-1.5188 1.3075-3.3682 1.9566-5.5484 0.39806-1.3289 0.7012-2.2506 0.90941-2.765 0.55117-1.3534 1.087-2.0301 1.6076-2.0301 0.42869 0 0.73182 0.21741 0.90942 0.65221 0.22046 0.52667 0.444 1.7821 0.67059 3.7663 0.12248 1.0043 0.33069 2.2108 0.62465 3.6193l0.78999 3.6101c0.82063-1.9719 1.8464-4.639 3.0773-8.001 0.0674-0.18372 0.22041-0.76245 0.4593-1.7362 0.17758-0.71651 0.39502-1.2738 0.65222-1.6719 0.22046-0.33682 0.50829-0.50523 0.86349-0.50523 0.61852 0 1.6424 0.43022 1.6424 1.0426 0 0.10399-0.8126 0.28624-1.0086 0.7946l-0.36743 0.99208-0.50524 1.6351-2.7283 6.6323c-0.25108 0.72876-0.68283 1.7882-1.2952 3.1784-0.22048 0.41031-0.55117 0.61547-0.99211 0.61547z"/>
  <path d="m159.65 130.84c-0.14078 1.7821-0.21128 3.4846-0.21128 5.1074 0 0.42869 0.0124 0.95842 0.0368 1.5892 0.0245 0.63078 0.0368 1.1605 0.0368 1.5892-0.62318 1.1566-1.8502 0.73703-2.1119-0.056 0.16496-2.1389 0.1703-1.9523 0.16461-3.003 0-1.4146 0.0857-3.1814 0.25722-5.3004 0.95489-2.2922 2.3686-1.8922 2.3686-1.8922 0.0384 0.75808-0.57835 1.5531-0.54077 1.9657z"/>
  <path d="m159.3 124.16c2.3372-0.23457 3.2558 3.0244 1.6449 3.9794-0.91212 0.5407-2.0763 0.25255-2.8349-0.51137-0.47293-0.5593-0.58893-0.94548-0.47004-1.5638 0.20135-1.0472 0.88033-1.826 1.6602-1.9043zm-0.26242 2.2887c0.15632 0.57954 0.55163 0.71431 1.0437 0.35569 0.48066-0.35031 0.48385-0.85836 7e-3 -1.1669-0.46349-0.30011-1.1979 0.26667-1.051 0.81127z" stroke-width=".26458"/>
 </g>
 <text x="170.6948" y="29.27804" fill="#1976d2" font-family="'Segoe Print'" font-size="25.624px" letter-spacing="0px" stroke-width=".64059" text-anchor="middle" word-spacing="0px" style="line-height:1.25" xml:space="preserve"><tspan x="170.6948" y="29.27804" text-align="center">Arduino</tspan><tspan x="175.8245" y="62.70341" text-align="center">Task </tspan><tspan x="170.6948" y="96.12879" text-align="center">Scheduler</tspan><tspan x="170.6948" y="129.5542" text-align="center">Library</tspan><tspan x="170.6948" y="162.9795" text-align="center"/></text>
 <text x="45.43002" y="67.96175" fill="#ffffff" font-family="Lato" font-size="10.583px" letter-spacing="0px" stroke-width=".26458" text-anchor="middle" word-spacing="0px" style="line-height:1.25" xml:space="preserve"><tspan x="45.43002" y="67.96175" text-align="center" style="line-height:1.5">Learn</tspan><tspan x="45.43002" y="83.83675" text-align="center" style="line-height:1.5">Arduino</tspan><tspan x="45.43002" y="99.71175" text-align="center" style="line-height:1.5">Programming</tspan><tspan x="45.43002" y="114.0768" text-align="center" style="line-height:1.5"/></text>
 <path d="m54.077 130.11c-0.94603 0.06-1.9802 0.461-3.0293 1.2339-3.3352 2.4567-2.7815 4.0992-10.921 5.7154-2.0105-1.3544-4.2865-2.3143-6.6598-2.8064-2.5221-0.5231-3.9013 0.3896-3.6888 3.5887 0.19401 2.9184 0.8539 5.804 1.9484 8.5164 0.68964 1.709 0.38022 1.9861-0.77556 3.1808-4.0506 4.1858-1.6501 11.268-1.366 12.998 0.0518 0.3145 5e-3 0.7355 0.44588 1.0404 0.0397 0.029 0.31352 0.1202 0.32021 0.1385-1.5176-4.0958-2.3573-12.392 1.8024-13.632 1.3981-0.4168 2.9645 0.2013 4.14 0.9389 5.8213 3.6558 2.7893 9.4724-1.3241 8.0814-1.2429-0.4202-2.2192-1.4765-2.6808-2.7052-0.11949-0.3176-0.47416-0.7192-0.69719-0.4633-0.3504 0.4022 0.81234 3.4582 3.682 3.9063 1.1112 0.1726 2.2837-0.068 3.3496 0.2918 1.6616 0.5596 2.5933 2.3987 4.1981 3.1049 1.4776 0.6503 3.529 0.251 4.4454 1.8917 0 0-0.0782 0.2657-0.1689 0.6283-0.0473 0.1883-0.0714 0.3752-0.14198 0.5567-0.0314 0.081-0.0468 0.1804 0.0105 0.2458 0.0559 0.065 0.44041 0.2144 0.54181 0.1072 0.13387-0.1412 0.1187-0.2774 0.304-0.9918 0.0277-0.1072 0.24291-0.9182 0.33915-1.0796 0.70734-1.1854 1.7346-2.1829 2.9522-2.8348 4.2287-2.2622 7.2504 1.0801 6.8948 3.9048 0.25519 0.1934 0.65275 0.026 0.80123-0.2589 0.33905-0.6466-0.27616-3.1078-2.2713-4.5926 2.8696-5.0299 2.9274-5.369 3.5737-5.5316 0.72664-0.183 1.3669 0.6356 1.3768 1.385 0.0105 0.7491-0.36835 1.4412-0.57831 2.1605-0.73524 2.5195 0.94065 5.4792 3.4793 6.1449 0.27911 0.065 0.52293 0.044 0.68909-0.1621 0.081-0.1019 0.12341-0.2301 0.12576-0.3595 0.0557-3.3039-1.1472-6.6148-3.313-9.1108-0.5907-0.6803-1.2768-1.3499-1.4728-2.2295-0.19035-0.8542 0.12158-1.7285 0.33237-2.5778 1.2867-5.1804-1.3145-7.9917-1.9862-11.206-0.34208-1.6376-0.20264-3.3405-0.47292-4.9911-0.46462-2.838-2.1222-4.3565-4.2036-4.225zm0.0771 1.0148c0.11609 0 0.23009 2e-4 0.34184 0.026 2.3757 0.3723 3.9288 5.1689 2.724 8.3949-0.0926 0.2484-0.11008 0.3993 0.0609 0.6267 1.9333 2.5726 2.4193 3.8119 2.7266 6.9059 0.23166 2.3328-0.27289 5.2565-0.69989 6.1977-0.44057 0.9714-0.67963 3.8844-5.3208 6.0979-3.5269 1.6823-5.1056 2.3862-7.5098 2.2795-2.8552-0.1255-6.567-2.0831-6.8773-2.2821-0.16603-0.1072-0.46732-0.2274-0.29185-0.4458 0.0769-0.097 0.19061-0.149 0.27428-0.2353 0.18564-0.1909 0.31007-0.4301 0.47965-0.6364 0.64318-0.7826 0.45464-2.0164 0.1595-3.09-0.26939-0.98-0.52254-2.001-1.2228-2.7768-0.21545-0.2379-0.38093-0.5289-0.61612-0.754-0.59962-0.5739 0.33324-0.3844 2.0497-3.4982 0.72868-1.322 1.3276-2.1513 1.589-5.171 0.0784-0.907 0.20735-1.9618-0.12158-2.8319-0.15478-0.4092-0.3656-0.9567-0.64584-1.2943-0.66888-0.8063 1.1353-1.1732 1.5592-1.2906 1.8101-0.5012 3.7172-0.7449 4.167-0.7444 0.24943 3e-4 0.39601 0.026 0.60667-0.1595 0.51794-0.4264 0.86415-1.2045 1.3066-1.7225 0.85819-1.0051 1.7898-1.916 2.9211-2.6079 0.63026-0.3856 1.5275-0.9397 2.3402-0.9781zm0.24185 1.7254c-0.52076-0.031-1.075 0.1752-1.5038 0.4243-0.86844 0.5062-1.5908 1.3591-2.1389 2.1916-1.0002 1.5189 0.21519 1.6658 0.8215 1.9741 1.6654 0.8469 1.9726 1.0281 2.4578 1.139 1.5562 0.3558 1.953-1.2331 1.8578-2.8077-0.0353-0.5822-0.18434-1.1444-0.30401-1.7118-0.0878-0.4162-0.26575-0.9096-0.6864-1.0932-0.16054-0.071-0.33039-0.1072-0.50397-0.115zm-0.45939 0.8864c0.39431 0.044 0.55747 1.125 0.64584 1.4809 0.16786 0.6756 0.25545 1.3709 0.25389 2.0674-5.5e-4 0.2617 3e-3 0.4377-0.29455 0.393-0.27087-0.042-1.4427-0.512-2.1767-1.0903-0.57763-0.455-0.93187-0.5972-0.42967-1.2255 0.43939-0.5496 1.1675-1.7205 2.0011-1.6255zm-21.3 3.394c0.5535 0.026 1.1502 0.2171 1.4917 0.4137 0.43976 0.251 2.0015 0.9263 2.0659 2.5482 0.0408 1.0252-0.93697 1.9932-1.693 2.559-0.56848 0.4256-1.0646 0.781-1.7403-0.3229-0.9972-1.629-1.1119-2.564-1.2944-3.3497-0.0881-0.3791-0.17701-0.7802-0.0622-1.1525 0.1676-0.5439 0.67876-0.712 1.2323-0.6958zm21.72 9.2651c-0.46402 0.034-0.73822 0.3754-1.1039 0.577-1.8628 1.0273-0.52902 2.2034-0.15531 1.6405 0.27975-0.4218 0.18172-0.9369 0.94988-1.2729 0.73822-0.3229 0.77781 0.546 1.4579 0.4121 0.52852-0.1046 0.55326-0.8652-0.61073-1.2728-0.20735-0.073-0.38308-0.094-0.53776-0.084zm3.124 2.7956c-0.31789-0.029-1.2827 0.3179-1.5255 0.4175-0.15975 0.065-0.52965 0.1621-0.56479 0.3663-0.035 0.2014 0.14067 0.4879 0.3459 0.5188 0.28131 0.042 0.51843-0.1961 0.76476-0.2879 0.20106-0.073 0.41784-0.065 0.62558-0.1072 0.18564-0.037 0.31473-0.1333 0.4783-0.2196 0.0235 0 0.0452-0.05 0.0513-0.078 0.0586-0.2745 0.0986-0.588-0.17571-0.6121zm-14.434 0.7391c-0.83917 0-1.3816 0.3483-1.8673 1.3189-0.15949 0.3184-0.0829 0.5464 0.24735 0.697 0.11896 0.055 0.33253-0.029 0.41481-0.1202 0.0761-0.086 0.0978-0.2144 0.1608-0.3067 0.9308-1.3693 1.745-0.6085 2.1051-0.5687 0.22747 0.026 0.62317-0.1255 0.51344-0.4137-0.11217-0.2936-0.36595-0.4259-0.62695-0.4821-0.35446-0.076-0.66744-0.1203-0.94715-0.1255zm15.05 0.8365c-0.15401 0-0.41822 0.1045-1.4714 0.3702-0.14485 0.037-0.30502 0.086-0.38914 0.2196-0.0544 0.086-0.1221 0.285 5e-3 0.3365 0.12394 0.05 0.26351 0.097 0.41751 0.05 0.31896-0.099 0.61837-0.2868 0.91069-0.2301 0.24316-0.026 0.42279-0.026 0.60126-0.055 0.0915-0.026 0.19845-0.047 0.22016-0.1229 0.056-0.1961 0.0157-0.3817-0.15139-0.5216-0.052-0.026-0.0905-0.042-0.14198-0.044zm-8.38 0.2431c-0.69869 0.047-1.4952 0.3538-2.0281 1.0527-0.16682 0.2196-0.30458 0.4928-0.24186 0.7606 0.2097 0.8942 1.9534 0.5127 1.9416 1.0728-8e-3 0.3349 0.27993 1.187 0.0837 1.7834-0.12237 0.3718-0.21911 0.6984-0.56207 0.9324-0.64527 0.4406-1.5168 0.1621-2.0213-0.3608-0.14302-0.149-0.31789-0.3342-0.5148-0.2743-0.24317 0.073-0.40891 0.5713-0.16211 0.946 0.56764 0.8618 3.0497 0.9949 3.478 0.026 0.14223-0.3213 0.48546-0.897 0.90932-0.8364 0.10145 0.026 0.17884 0.078 0.27833 0.099h1e-3c0.25519 0.057 1.4496 0.042 1.8646-0.031 0.2703-0.05 0.43121-0.2405 0.62289-0.416 0.49302-0.4521 0.74462-0.4738 0.77827-1.0715 0.0183-0.3268 0.21754-0.9109-0.18642-1.0607-0.27054-0.099-0.84114-0.1072-0.82286 0.3067 0.0131 0.2988-0.0376 0.5875-0.10955 0.8701-0.22042 0.8694-2.3905 0.7865-2.5767-0.2248-0.0954-0.5191-0.0881-0.9978 0.14721-1.4794 0.26436-0.541 0.74397-1.1494 0.56074-1.5889-0.14172-0.34-0.74165-0.5525-1.4403-0.5055zm7.4301 2.1119c-0.24029 0-0.43683 0.026-0.52018 0.068-0.1127 0.065-0.18957 0.2144-0.14198 0.342 0.0965 0.2588 0.24133 0.3521 0.50533 0.2891 0.90852-0.217 0.88875 0.7128 1.5998-0.047 0.38862-0.4147-0.72245-0.6451-1.443-0.6526zm-14.36 0.3433c-0.1995-0.026-1.1952 0.4071-1.6376 0.862-0.18825 0.1935-0.42856 0.6053 0.0607 0.5606 0.20159-0.026 1.1205-0.4361 1.2836-0.5106 0.21257-0.097 0.46768-0.1412 0.5256-0.3975 0.0413-0.183-2e-3 -0.4886-0.23245-0.5145zm-5.4952 0.4147c-0.11478 0-0.19244 0.073-0.19322 0.1908-5e-3 0.666 0.75488 1.2833 0.94041 1.3442 0.24055 0.078 0.48952-0.1333 0.50128-0.3754 0.0105-0.1987-0.39423-0.7029-0.53506-0.842-0.22486-0.2222-0.52199-0.3375-0.71341-0.3174zm-1.8538 0.7946c-0.1106 0-0.20394 0.063-0.25807 0.2562-0.0907 0.3219 0.28029 0.2118 0.49587 0.7609 0.0667 0.1699 0.0962 0.4018 0.26212 0.52 0.1323 0.094 0.31251 0.034 0.46209 0.026 0.30897-0.026 0.028-0.7042-0.0541-0.8255-0.14381-0.2118-0.34514-0.3796-0.54317-0.5433-0.12603-0.1046-0.25415-0.1857-0.36482-0.1909zm7.2219 0.6591c-0.56149 0-1.3146 0.3935-1.4133 0.9175-0.0364 0.1935 0.15139 0.5211 0.37698 0.5028 0.0366 0 0.35596-0.1203 0.48235-0.3083 0.17989-0.2667 0.36312-0.183 0.64315-0.1804 0.71446 0 0.71417-0.4892 0.37698-0.7862-0.11347-0.099-0.27898-0.1438-0.46614-0.1464zm-9.0556 0.2118c-0.0635 0-0.12027 0-0.16498 0.063-0.0549 0.065-0.0416 0.3346 0.0105 0.4042 0.60192 0.7977 0.30826 1.2412 0.68909 1.255 0.43058 0.026 0.53344-0.6795 0.0311-1.2929-0.12916-0.1569-0.37575-0.4045-0.56612-0.4283zm9.4447 1.5861c-0.37789-0.06-0.71207 0.4756-0.95121 0.7161-0.0769 0.078-0.154 0.1569-0.20525 0.2536-0.1778 0.3331 0.15348 0.6702 0.5837 0.5284 0.1825-0.06 0.38396-0.196 0.47696-0.3676 0.12891-0.2379 0.30916-0.2379 0.54317-0.285 0.19741-0.039 0.40232-0.1307 0.40535-0.3621 2e-3 -0.1935-0.0157-0.2196-0.1893-0.3135-0.20786-0.1124-0.43432-0.1333-0.66342-0.1699z" fill="#fff" stroke-width=".022591"/>
 <g transform="matrix(.13753 0 0 .13753 231.32 28.241)">
  <path d="m278.78 28.75c-12.182 4.1111-14.118 19.167-14.781 30.312-0.6591 13.354 0.9841 26.666 2.2188 39.938-28.074 41.481-44.634 89.36-68.351 133.27-15.447 30.768-31.506 61.212-47.43 91.735 7.5031 11.437 24.441 19.272 36.844 10.812 2.7987-3.0225 2.631 2.5633 4.375 4.25 7.3516 12.658 24.929 19.186 38.25 12.219 1.4482 7.0245 7.5611 13.549 12.969 16.562-20.448-4.2966-41.392 3.6241-59.031 13.406-34.944 20.417-59.613 54.612-75.344 91.219-11.608 32.034-16.17 66.9-12.5 100.84 4.6457 40.238 24.772 78.272 56.425 103.64 6.2142 5.2775 12.822 10.036 19.606 14.548-25.895-3.6645-52.139-5.7144-78.344-5.0625-1.6665 2.3867 0.66253 5.4243 0.53125 7.0312-18.066 12.726-19.945 38.995-12.719 58.5 4.403 11.461 16.157 21.869 29.094 18.5 10.727-0.5092 21.103 3.4231 31.832 3.9829 44.16 6.3189 88.394 12.014 132.92 15.267-24.735 29.227-48.43 59.711-66.219 93.688-5.7666 13.744-13.628 29.325-8.6562 44.375 5.3314 9.5282 19.047 8.049 26.625 2.125 13.758-7.4398 25.743-17.624 37.25-28.156-6.5122 13.212-13.095 27.826-11.344 42.938 1.807 8.9897 12.844 15.746 21.094 10.406 7.2156-3.3537 12.626-9.3188 17.344-15.594-1.098 12.697-2.5913 27.309 4.875 38.312 7.3956 6.9142 18.908 2.0753 23.969-5.25 6.8386-7.1524 11.705-16.443 15.812-25.094-0.3387 15.755-0.5473 32.981 7.9688 46.75 6.1674 7.1984 18.567 5.9194 23.156-2.4062 5.8645-7.0948 8.6258-16.01 11.062-24.75 2.147 11.18 4.7805 24.084 14.25 31.344 8.2402 4.4296 18.473-1.5475 20.688-10.125 11.447-23.502 11.916-50.388 16.339-75.711 5.2294-42.757 5.214-86.144 0.1295-128.91 46.246-5.6706 93.121-14.013 139.84-7.6158 13.146 1.293 26.234 3.2452 39.224 5.8346 8.2117-29.092 3.8638-62.266-13.25-87.188-7.7143-6.0902-18.01-1.426-26.872-2.4681-27.063 0.786-54.14 4.3639-80.94 6.6869-4.7817-1.9145-12.365-2.6107-15.5-4.625 2.9593-2.9603 6.3241 1.5801 9.8125 0.8437 5.5734 0.7769 11.655-1.1862 16.656-1.7812 4.002 6.0764 12.037 2.4409 17.078-0.013 26.486-11.827 44.754-36.112 59.11-60.487 29.483-54.701 31.706-123.46 6.8125-180.28-10.909-22.95-27.923-43.343-49.969-56.125 13.572-48.212 28.415-97.712 23.438-148.38-0.3403-7.6507-1.0665-15.305-0.75-22.969 22.156-11.785 42.971-27.79 56.219-49.344 4.6003-8.9164 5.1575-22.781-4.4375-28.594-6.977-2.5782-13.161 3.5433-20.156 3.3438-28.458 5.6704-60.185-0.203-82.074-20.13-42.606-29.676-93.564-48.611-146.02-47.87-21.586-0.34831-41.79-11.475-55.638-27.556-7.0703-7.3142-11.751-16.564-17.831-24.569-1.6206-1.1765-3.6436-1.8477-5.6562-1.625zm-28.562 341.47c4.4198 0.3634-1.0708 0.681 0 0zm-64.781 307.16c9.417 4.9624 20.314 7.8528 30.969 6.5312 5.0658 4.7409 10.584 9.2954 16.406 13.281-6.509 3.1974-13.789 3.1464-20.625 0.6875-7.1161-1.3239-14.396-1.8969-21.344-4-2.0593-5.6892-4.2394-11.327-6.3438-17l0.8823 0.4706 0.055 0.029z" fill="none" stroke="#000" stroke-width="3.747"/>
  <g transform="translate(397.34,-27.348)">
   <g transform="matrix(.91826 .39599 -.39599 .91826 -702.85 -127.86)">
    <path d="m956.62 685.79c-5.245 13.635-67.394 178.12-64.644 52.661 37.595-239.01 138.69-252.57 101.92-235.92 1.2135-8.1411 64.48 90.927 85 150.88 65.403 191.1-9.278 107.77-23.958 41.785-4.256-19.129 8.105 37.805 10.58 71.58 2.474 33.774-21.024 37.954-48.738-67.378 0 0 7.791 86.674-10.146 91.845-9.7049 2.7977-28.526-52.328-24.738-85.798 4.7258-41.751-1.5343 83.817-21.855 78.417-21.759-5.7821-2.3216-98.075-3.4165-98.075z" fill="#500" stroke="#4e0000" stroke-width="3.6472"/>
    <path d="m953.31 654.48c-4.1208 9.8681-43.297 122.48-41.137 31.679 29.537-172.99 108.97-182.8 80.072-170.75 0.9534-5.8921 50.66 65.808 66.781 109.2 51.385 138.3-7.29 78-18.823 30.242-3.343-13.844 6.368 27.362 8.312 51.806s-16.518 27.469-38.292-48.765c0 0 6.122 62.73-7.971 66.473-7.6249 2.0248-22.412-37.872-19.436-62.096 3.7129-30.218-1.2055 60.663-17.171 56.755-17.096-4.1848-11.476-64.547-12.336-64.547z" fill="#fff" stroke="#0c0909" stroke-width="2.7503"/>
   </g>
   <path d="m-291.71 718.54c78.002 0 137 21.71 216.07 27.814 93.139 1.1257 177.31-22.025 269.51-22.466 15.442 21.958 17.537 57.571 13.202 72.853 0 0-59.473-11.797-115.29-4.2883-55.819 7.5085-122.86 15.056-167.77 15.214-71.694 0.2515-214.21-22.6-214.21-22.6 6.5098-16.972 12.061-29.221-1.506-66.527z" fill="#800000" stroke="#fff" stroke-width="7.929"/>
   <ellipse transform="matrix(1.1913,0,0,1.1184,-511.19,-37.445)" cx="185.52" cy="708.3" rx="16.739" ry="29.136" fill="#800000" stroke="#fff" stroke-width="5.0457"/>
   <path d="m-108.09 743.1c-67.646 27.319-37.541 52.814-42.581 51.369-51.382-14.733 13.233-51.848 0.8809-43.904-40.772 26.22-8.8298 40.213-8.8298 40.213-2.7768 12.251-51.649-18.878-7.8039-46.056 0 0-35.374 17.051-6.2111 46.337-15.282-2.3958-29.587-12.115-29.163-29.286 0.5211-21.129 41.036-34.363 65.536-39.809 69.392-15.423 146.18-25.445 49.628 12.667z" fill="#fff" stroke="#000" stroke-width="4.3055"/>
   <path d="m29.834 743.9c70.603 22.216 42.465 47.055 47.422 45.5 50.533-15.85-17.867-47.234-4.7169-40.452 43.405 22.386 12.411 36.698 12.411 36.698 3.8687 11.176 50.442-19.685 3.8541-42.819 0 0 37.161 14.167 10.304 42.461 15.203-2.8825 28.781-12.476 26.857-28.293-2.368-19.463-44.381-29.885-69.564-33.828-71.326-11.168-149.64-17.029-48.945 13.868z" fill="#fff" stroke="#000" stroke-width="3.9284"/>
   <path d="m132.41 552.73c-12.435 141.91-57.556 181.34-154.14 189.52-88.814 7.5208-201.07-15.803-198.1-178.02 1.9606-107.14 87.716-207.44 196.22-199.32 93.574 7.0021 165.39 80.976 156.02 187.83z" fill="#500" stroke="#0f0505" stroke-width="3.7093"/>
   <g transform="matrix(1.0699 0 0 .88545 -464.97 117.39)" display="initial">
    <ellipse cx="392.7" cy="526.87" rx="137.52" ry="160.91" fill="#fff" stroke="#000" stroke-width="2.3724"/>
    <text transform="scale(.96131 1.0403)" x="381.3315" y="394.0296" fill="#000000" font-family="sans-serif" font-size="43.798px" letter-spacing="0px" word-spacing="0px" style="line-height:125%">
     <tspan x="381.3315" y="394.0296">12</tspan>
    </text>
    <text x="441.6192" y="424.3194" fill="#000000" font-family="sans-serif" font-size="45px" letter-spacing="0px" word-spacing="0px" style="line-height:125%">
     <tspan x="441.6192" y="424.3194">1</tspan>
    </text>
    <text x="449.3293" y="659.8942" fill="#000000" font-family="sans-serif" font-size="45px" letter-spacing="0px" word-spacing="0px" style="line-height:125%">
     <tspan x="449.3293" y="659.8942">5</tspan>
    </text>
    <text x="320.9913" y="661.2134" fill="#000000" font-family="sans-serif" font-size="45px" letter-spacing="0px" word-spacing="0px" style="line-height:125%">
     <tspan x="320.9913" y="661.2134">7</tspan>
    </text>
    <text x="277.5954" y="611.8776" fill="#000000" font-family="sans-serif" font-size="45px" letter-spacing="0px" word-spacing="0px" style="line-height:125%">
     <tspan x="277.5954" y="611.8776">8</tspan>
    </text>
    <text x="386.0852" y="682.9114" fill="#000000" font-family="sans-serif" font-size="45px" letter-spacing="0px" word-spacing="0px" style="line-height:125%">
     <tspan x="386.0852" y="682.9114">6</tspan>
    </text>
    <text x="264.6567" y="488.6597" fill="#000000" font-family="sans-serif" font-size="45px" letter-spacing="0px" word-spacing="0px" style="line-height:125%">
     <tspan x="264.6567" y="488.6597">10</tspan>
    </text>
    <text x="299.3257" y="432.0452" fill="#000000" font-family="sans-serif" font-size="45px" letter-spacing="0px" word-spacing="0px" style="line-height:125%">
     <tspan x="299.3257" y="432.0452">11</tspan>
    </text>
    <text transform="scale(1.0255 .97513)" x="250.842" y="561.9868" fill="#000000" font-family="sans-serif" font-size="45.226px" letter-spacing="0px" word-spacing="0px" style="line-height:125%">
     <tspan x="250.842" y="561.9868">9</tspan>
    </text>
    <text transform="scale(1.1488 .8705)" x="432.87" y="621.1875" fill="#000000" font-family="sans-serif" font-size="45.951px" letter-spacing="0px" word-spacing="0px" style="line-height:125%">
     <tspan x="432.87" y="621.1875">3</tspan>
    </text>
    <text x="481.8999" y="477.2258" fill="#000000" font-family="sans-serif" font-size="45px" letter-spacing="0px" word-spacing="0px" style="line-height:125%">
     <tspan x="481.8999" y="477.2258">2</tspan>
    </text>
    <text x="488.6916" y="608.0925" fill="#000000" font-family="sans-serif" font-size="45px" letter-spacing="0px" word-spacing="0px" style="line-height:125%">
     <tspan x="488.6916" y="608.0925">4</tspan>
    </text>
    <g transform="matrix(.4 0 0 .4 246 332)" fill="#500" fill-rule="evenodd" stroke="#ccc" stroke-width="1px">
     <path d="m342.28 450.74 8.1243 44.935 111.37 162.04-84.645-177.47-34.853-29.503z">
      <animateTransform attributeName="transform" dur="43200s" from="0,367.3,487.5" repeatCount="indefinite" to="360,367.3,487.5" type="rotate"/>
     </path>
     <path d="m365.94 557.75c6.0104-20.13 12.021-40.26 18.031-60.39-6.0104-91.812-12.021-183.62-18.031-275.44-6.0104 91.812-12.021 183.62-18.031 275.44 6.0104 20.13 12.021 40.26 18.031 60.39z">
      <animateTransform attributeName="transform" dur="3600s" from="0,367.3,487.5" repeatCount="indefinite" to="360,367.3,487.5" type="rotate"/>
     </path>
    </g>
   </g>
   <g transform="matrix(1.3158 .015191 -.1122 1.013 -256.56 197.77)">
    <path d="m97.87 199c-23.685-9.236-69.054 14.953-90.636 99.687-20.826 133.72 42.161 188.69 66.629 206.7l-12.78-34.247s20.938 30.012 43.031 22.248c-17.861-31.609-43.493-70.082-40.584-135.09 2.7961-62.475 63.628-144.05 34.34-159.3z" fill="#800000" stroke="#fff" stroke-width="4.5112"/>
    <ellipse transform="matrix(.83683 .54746 -.39256 .91973 -172.13 -152.82)" cx="367.88" cy="228.39" rx="7.3715" ry="19.399" fill="#fff"/>
    <ellipse transform="matrix(.83683 .54746 -.39256 .91973 -172.13 -152.82)" cx="390.86" cy="201.81" rx="7.3715" ry="19.399" fill="#fff"/>
    <ellipse transform="matrix(.90252 .43066 -.26606 .96396 -172.13 -152.82)" cx="325.14" cy="336.97" rx="7.3715" ry="19.399" fill="#fff"/>
    <ellipse transform="matrix(.90252 .43066 -.26606 .96396 -172.13 -152.82)" cx="347.2" cy="313.05" rx="7.3715" ry="19.399" fill="#fff"/>
    <ellipse transform="matrix(.95704 .28995 -.11798 .99302 -172.13 -152.82)" cx="284.07" cy="426.14" rx="7.3715" ry="19.399" fill="#fff"/>
    <ellipse transform="matrix(.98845 .15152 .023809 .99972 -172.13 -152.82)" cx="186.48" cy="497.46" rx="7.3715" ry="19.399" fill="#fff"/>
    <ellipse transform="matrix(.99579 -.09166 .33076 .94372 -172.13 -152.82)" cx="9.1808" cy="616.07" rx="6.3699" ry="14.295" fill="#fff"/>
    <ellipse transform="matrix(.99683 .079623 .15339 .98817 -172.13 -152.82)" cx="141.18" cy="550.04" rx="6.2402" ry="13.15" fill="#fff"/>
   </g>
   <g transform="matrix(1.2116,0,0,1,-669.4,69.173)">
    <path d="m608.43 348.19c22.663-9.3394 78.743 2.5439 99.394 88.227 25.143 129.7-42.784 202.4-64.184 206.78l9.6603-28.808s-10.904 34.543-32.045 26.692c23.362-35.852 39.102-78.586 32.7-144.38-8.0164-82.385-73.551-133.09-45.525-148.51z" fill="#800000" stroke="#fff" stroke-width="4.4375"/>
    <ellipse transform="matrix(.90173 -.4323 .4678 .88383 111 4.826)" cx="288.41" cy="585.46" rx="7.9479" ry="17.871" fill="#fff"/>
    <ellipse transform="matrix(.99462 .10359 .12819 .99175 112.61 6.4347)" cx="504.76" cy="391.79" rx="8.1284" ry="18.172" fill="#fff"/>
    <ellipse transform="matrix(.97892 .20424 .026634 .99965 112.61 6.4347)" cx="560.62" cy="387.12" rx="8.1284" ry="18.172" fill="#fff"/>
    <ellipse transform="matrix(.90732 .42044 -.2141 .97681 112.61 6.4347)" cx="675.13" cy="271.07" rx="6.0681" ry="13.316" fill="#fff"/>
    <ellipse transform="matrix(.999 -.044782 .27358 .96185 112.61 6.4347)" cx="445" cy="442.93" rx="8.1284" ry="18.172" fill="#fff"/>
    <ellipse transform="matrix(.97892 .20424 .026634 .99965 112.61 6.4347)" cx="582.42" cy="344.12" rx="8.1284" ry="18.172" fill="#fff"/>
    <ellipse transform="matrix(.88913 .45766 -.19358 .98108 112.61 6.4347)" cx="696.89" cy="207.15" rx="7.5667" ry="17.996" fill="#fff"/>
    <ellipse transform="matrix(.81739 .57609 -.35914 .93329 112.61 6.4347)" cx="758.18" cy="150.52" rx="6.3387" ry="13.106" fill="#fff"/>
   </g>
   <g transform="matrix(.99882 .048646 -.048646 .99882 282.32 223.43)">
    <path d="m-126.9 72.283c4.1712 45.676-11.13 100.41-16.189 123.11-7.3865 33.141-2.6755 31.615-4.9317 59.228-28.535 11.282-45.998-37.15-49.486-42.453 0.087 29.529-12.243 34.234-12.243 34.234-14.959 5.6207-30.731-25.772-30.731-25.772s0.2078 36.095-27.652 23.01c-19.9-9.3467-7.2763-56.829-16.676-49.893 0 0-22.207 33.214-43.214 24.841-10.808-4.3076-3.8701-38.892-3.8701-38.892-3.7997-9.459-11.946 22.923-40.862 20.909-30.547-2.1277-12.631-43.518-16.902-40.666 0 0-22.906 38.122-38.989 17.767-13.85-17.53 1.1563-29.238-4.8752-26.696 0 0-6.2341 26.562-30.567 15.14-20.364-9.5591-8.5176-41.837-8.5176-41.837-6.4737 21.45-18.01 42.549-38.755 24.291 0 0 41.95-89.229 65.828-147.94 14.111-34.697 28.248-66.841 38.089-79.547 0 0-11.84-53.001 1.3268-64.122 1.647-1.3911 26.363 54.153 86.851 49.68 19.026-1.4071 55 3.6826 74.9 10.18 19.899 6.4973 53.047 22.007 68.477 33.275 43.478 31.751 98.846 8.639 98.846 8.639 19.248 22.129-54.672 73.169-54.032 67.786z" fill="#800000" fill-rule="evenodd" stroke="#fff" stroke-width="6.067"/>
    <path d="m-202.29-12.678c-23.409-7.5939-55.014 7.4158-74.315 33.123-0.1406-30.545-22.007-59.8-44.118-67.068-21.065-6.8781-43.563-2.581-62.879 9.9205-19.175 12.411-33.95 33.362-43.596 58.583-23.209 60.686-9.1955 122.05 36.62 138.29 24.055 7.8059 50.02 8.4736 76.969-7.6917 13.624 24.071 26.244 33.253 59.03 41.443 43.858 5.3484 90.718-33.848 106.36-85.184 19.479-63.923-12.862-107.96-54.072-121.42z" fill="#faf4b5" stroke="#000" stroke-width="2.4044"/>
    <ellipse transform="matrix(.95061 .31038 -.31038 .95061 -592.65 -256.33)" cx="308.86" cy="217.41" rx="48.184" ry="58.668" fill="#fff" stroke="#000" stroke-width="9.109"/>
    <ellipse transform="matrix(.95061 .31038 -.31038 .95061 -592.65 -256.33)" cx="461.4" cy="211.81" rx="49.625" ry="61.903" fill="#fff" stroke="#000" stroke-width="9.2698"/>
    <path d="m-285.09 142.69c-24.329 14.985-57.363 13.335-62.232-11.903 0 0 19.435 1.6297 32.393-14.518 18.823-23.457-14.882-54.003 16.112-21.979 12.377 12.789 19.715 31.89 38.143 37.1 4.6341 1.3101-24.417 11.3-24.417 11.3z" fill="#800000" stroke="#000" stroke-width="1.6556"/>
    <path d="m-286.6 135.4c-15.436 11.827-48.391 18.092-51.66 0.714 0 0 15.383-3.3407 25.515-13.282 14.988-14.705 1.9384-40.535 16.059-25.525 3.2361 3.44 25.746 26.094 25.746 26.094z" fill="#faf4b5" stroke="#000" stroke-width="1.7533"/>
    <path d="m-259.5 129.89c-32.789-7.8464-19.931-21.947-44.977-36.236-18.594-10.647-27.059 3.5592-25.347-1.1215 4.0059-10.955 38.924-66.732 47.88 6.7149 2.8387 23.281 27.002 21.778 22.444 30.642z" fill="#800000" stroke="#000" stroke-width="2"/>
    <ellipse transform="matrix(.95061 .31038 -.31038 .95061 -592.65 -256.33)" cx="319.42" cy="230.4" rx="21.435" ry="26.898" fill="#061305" stroke="#000" stroke-width="8.709"/>
    <ellipse transform="matrix(.95061 .31038 -.31038 .95061 -592.65 -256.33)" cx="453.39" cy="225.25" rx="21.435" ry="26.898" fill="#061305" stroke="#000" stroke-width="8.709"/>
    <ellipse transform="matrix(.95061 .31038 -.31038 .95061 -592.65 -256.33)" cx="330.86" cy="223.2" rx="8.4057" ry="10.087" fill="#fff"/>
    <ellipse transform="matrix(.95061 .31038 -.31038 .95061 -592.65 -256.33)" cx="319.93" cy="246.42" rx="5.884" ry="6.3043" fill="#fff"/>
    <ellipse transform="matrix(.95061 .31038 -.31038 .95061 -592.65 -256.33)" cx="457.21" cy="220.5" rx="8.4057" ry="10.087" fill="#fff"/>
    <ellipse transform="matrix(.95061 .31038 -.31038 .95061 -592.65 -256.33)" cx="446.25" cy="239.34" rx="5.0434" ry="5.4637" fill="#fff"/>
    <path d="m-353.89-29.025c-23.447-13.715-42.699-28.833-51.436-44.813 14.251 13.666 36.691 17.827 31.75 15.172-4.9409-2.6546-22.406-19.087-31.755-32.893 0 0 19.978 14.318 27.817 16.236 0.6164 0.20778-14.331-20.992-20.911-35.338 17.238 7.6314 38.424 41.067 58.985 57.291 25.705 19.331 57.225 29.793 57.917 39.956-18.768 11.51-54.776-6.1236-72.366-15.61z" fill="#800000" stroke="#fff" stroke-width="6.344"/>
    <path d="m-193.47 23.694c27.373 1.8319 51.827 0.0781 67.608-8.4222-19.374 3.3895-40.967-5.9378-35.32-5.3528 5.6471 0.58504 29.228-3.3021 44.423-9.6147 0 0-24.674 0.66313-32.455-2.2035-0.6411-0.1772 23.204-9.5322 36.276-17.887-18.865-3.4185-54.402 12.704-80.56 14.643-32.213 1.62-64.916-7.5807-70.734 0.60913 10.363 20.464 50.639 26.175 70.762 28.228z" fill="#800000" stroke="#fff" stroke-width="6.4271"/>
   </g>
  </g>
 </g>
</svg>
