<?xml version="1.0" encoding="UTF-8" standalone="no"?>
<svg
   xmlns:dc="http://purl.org/dc/elements/1.1/"
   xmlns:cc="http://creativecommons.org/ns#"
   xmlns:rdf="http://www.w3.org/1999/02/22-rdf-syntax-ns#"
   xmlns:svg="http://www.w3.org/2000/svg"
   xmlns="http://www.w3.org/2000/svg"
   xmlns:sodipodi="http://sodipodi.sourceforge.net/DTD/sodipodi-0.dtd"
   xmlns:inkscape="http://www.inkscape.org/namespaces/inkscape"
   width="1200"
   height="630"
   version="1.1"
   viewBox="0 0 317.50002 166.6875"
   id="svg26"
   sodipodi:docname="serial.svg"
   inkscape:version="0.92.3 (2405546, 2018-03-11)"
   inkscape:export-filename="C:\p\wokwi\challenge-covers\serial.png"
   inkscape:export-xdpi="96"
   inkscape:export-ydpi="96">
  <metadata
     id="metadata32">
    <rdf:RDF>
      <cc:Work
         rdf:about="">
        <dc:format>image/svg+xml</dc:format>
        <dc:type
           rdf:resource="http://purl.org/dc/dcmitype/StillImage" />
        <dc:title />
      </cc:Work>
    </rdf:RDF>
  </metadata>
  <defs
     id="defs30" />
  <sodipodi:namedview
     pagecolor="#ffffff"
     bordercolor="#666666"
     borderopacity="1"
     objecttolerance="10"
     gridtolerance="10"
     guidetolerance="10"
     inkscape:pageopacity="0"
     inkscape:pageshadow="2"
     inkscape:window-width="1920"
     inkscape:window-height="1137"
     id="namedview28"
     showgrid="false"
     units="px"
     inkscape:zoom="0.844875"
     inkscape:cx="525.0821"
     inkscape:cy="276.5976"
     inkscape:window-x="-8"
     inkscape:window-y="-8"
     inkscape:window-maximized="1"
     inkscape:current-layer="svg26" />
  <rect
     style="opacity:1;fill:#ffffff;fill-opacity:1;stroke:none;stroke-width:0.26458335;stroke-miterlimit:4;stroke-dasharray:none;stroke-opacity:1"
     id="rect1949"
     width="317.5"
     height="166.6875"
     x="0"
     y="5.25e-006" />
  <rect
     style="opacity:1;fill:#1976d2;fill-opacity:1;stroke:#cc9933;stroke-width:0.07375048;stroke-miterlimit:4;stroke-dasharray:none;stroke-opacity:1"
     id="rect862"
     width="91.635941"
     height="166.61377"
     x="0.036875233"
     y="0.036875278" />
  <g
     transform="translate(-81.133883,-115.13699)"
     id="g24"
     style="fill:#ffffff">
    <g
       transform="translate(1.0583)"
       id="g10"
       style="fill:#ffffff">
      <path
         d="m 95.357,139.36 c -0.63063,-0.73733 -0.76508,-1.8626 -0.3206,-2.6836 0.40496,-0.74801 0.34605,-1.1365 -0.58255,-3.8405 -0.93762,-2.7303 -1.1164,-3.0496 -1.9348,-3.4548 -1.9168,-0.94902 -1.7658,-3.4525 0.24143,-4.0009 1.8921,-0.51705 3.3738,1.386 2.4179,3.1056 -0.41617,0.74931 -0.36062,1.1128 0.59326,3.8651 0.96902,2.796 1.1255,3.0716 1.9638,3.4568 1.1926,0.54813 1.6205,1.8835 0.96913,3.0246 -0.65031,1.1394 -2.5661,1.4412 -3.3476,0.52754 z m 1.9118,-1.003 c 0.46456,-0.3801 0.42542,-0.79596 -0.10341,-1.0978 -0.23785,-0.13576 -0.54429,-0.18595 -0.68098,-0.11152 -0.42252,0.23003 -0.40686,1.0139 0.0252,1.2605 0.22572,0.12884 0.56735,0.10586 0.75919,-0.0511 z M 93.7762,128 c 0.34651,-0.18865 0.22405,-1.0774 -0.18024,-1.3081 -0.33671,-0.19219 -0.99428,0.26889 -0.97968,0.68691 0.01353,0.38618 0.80904,0.81225 1.1599,0.62119 z"
         id="path2"
         inkscape:connector-curvature="0"
         style="fill:#ffffff;stroke-width:0.26458001" />
      <path
         d="m 103.11,138.83 c -0.63064,-0.73733 -0.76508,-1.8626 -0.3206,-2.6836 0.40496,-0.74801 0.34605,-1.1365 -0.58255,-3.8405 -0.93762,-2.7303 -1.1164,-3.0496 -1.9348,-3.4548 -1.9168,-0.94902 -1.7658,-3.4525 0.24142,-4.0009 1.8921,-0.51705 3.3738,1.386 2.4179,3.1056 -0.41617,0.74931 -0.36062,1.1128 0.59326,3.8651 0.96902,2.796 1.1255,3.0716 1.9638,3.4568 1.1926,0.54813 1.6205,1.8835 0.96913,3.0246 -0.65031,1.1394 -2.5661,1.4412 -3.3476,0.52754 z m 1.9118,-1.003 c 0.46456,-0.3801 0.42542,-0.79596 -0.10341,-1.0978 -0.23786,-0.13576 -0.54429,-0.18595 -0.68099,-0.11152 -0.42252,0.23003 -0.40686,1.0139 0.0252,1.2605 0.22572,0.12884 0.56735,0.10586 0.75919,-0.0511 z m -3.4926,-10.357 c 0.34651,-0.18865 0.22405,-1.0774 -0.18024,-1.3081 -0.33671,-0.19219 -0.99428,0.26889 -0.97968,0.68691 0.0135,0.38618 0.80904,0.81225 1.1599,0.62119 z"
         id="path4"
         inkscape:connector-curvature="0"
         style="fill:#ffffff;stroke-width:0.26458001" />
      <path
         d="m 95.708,140.05 c -2.027,-1.187 -1.3003,-4.1847 1.0144,-4.1847 0.7506,0 0.81658,-0.17688 1.8641,-1.169 1.04752,-0.99212 2.8331,-2.6274 4.0355,-3.2215 0.32332,0.45905 0.57081,1.6145 0.607,1.7479 -0.77291,0 -2.7507,1.5148 -3.5888,2.5375 -0.80994,0.98843 -0.98477,1.4007 -0.92793,2.188 0.0528,0.73055 -0.0809,1.111 -0.5411,1.5406 -0.77949,0.72771 -1.7869,0.95723 -2.4632,0.56118 z m 1.56,-1.6951 c 0.21504,-0.5604 -0.0251,-0.90216 -0.63401,-0.90216 -0.59477,0 -0.89658,0.40871 -0.69321,0.93871 0.19783,0.51552 1.1252,0.48999 1.3272,-0.0366 z"
         id="path6"
         inkscape:connector-curvature="0"
         style="fill:#ffffff;stroke-width:0.26458001" />
      <path
         d="m 104.35,135.89 c 0,0 0.28317,-0.56489 1.3917,-3.717 1.4404,-4.0772 1.5089,-4.4064 1.0963,-5.2625 -0.88721,-1.8407 0.83445,-3.684 2.6908,-2.8809 0.69419,0.30034 0.93102,0.58581 1.236,1.4898 0.33189,0.9839 0.3026,1.1906 -0.24399,1.7204 -0.34168,0.33116 -0.89596,0.71649 -1.2317,0.85629 -0.47046,0.19599 -0.97173,1.2549 -2.1856,4.6178 -1.4426,3.9967 -1.06,2.8174 -0.67075,3.5415 0.96203,1.7894 -0.25941,0.49189 -2.0826,-0.36539 z m 5.0658,-9.8494 c -0.006,-0.60021 -0.35551,-0.82955 -0.92164,-0.60535 -0.25463,0.10083 -0.48532,0.30869 -0.51265,0.46191 -0.0845,0.47361 0.53722,0.95124 0.99974,0.76807 0.24164,-0.0957 0.43719,-0.37678 0.43455,-0.62463 z"
         id="path8"
         inkscape:connector-curvature="0"
         style="fill:#ffffff;stroke-width:0.26458001" />
    </g>
    <g
       id="g18"
       style="fill:#ffffff">
      <path
         d="m 118.62,139.4 q -2.378,0.36279 -4.2325,-0.92219 -1.9687,-1.3696 -2.3075,-3.9527 -0.41272,-3.147 0.97845,-5.9848 1.5566,-3.1506 4.4406,-3.5906 2.7744,-0.42327 4.3002,0.71702 1.592,1.1858 1.988,4.2056 0.41271,3.147 -0.84107,5.9175 -1.4422,3.1703 -4.3262,3.6103 z m -0.87636,-12.586 q -2.066,0.31521 -3.2086,2.7532 -1.0568,2.2394 -0.7347,4.6952 0.2302,1.7554 1.5804,2.672 1.2913,0.86063 2.9947,0.60077 2.0492,-0.31263 3.0893,-2.7443 0.92782,-2.1733 0.60218,-4.6564 -0.28509,-2.1738 -1.3031,-2.9184 -0.97108,-0.71466 -3.0203,-0.40203 z"
         id="path12"
         inkscape:connector-curvature="0"
         style="fill:#ffffff" />
      <path
         d="m 127.86,124.81 c -0.25722,0 -0.47457,0.0917 -0.65215,0.27544 -0.1715,0.18372 -0.25735,0.40742 -0.25735,0.67076 0,1.2237 -0.0381,3.081 -0.10129,5.3542 0.31763,-0.50907 0.77309,-0.84657 1.2712,-0.89658 0.16266,-0.0163 0.31758,-0.0145 0.46612,0.001 0.0165,-0.48496 0.043,-1.0374 0.0822,-1.6846 0.0734,-1.2554 0.11007,-2.18 0.11007,-2.774 0,-0.26334 -0.0891,-0.48704 -0.26665,-0.67076 -0.17149,-0.18368 -0.38884,-0.27544 -0.65216,-0.27544 z m 6.8254,0.15606 c -0.2572,0 -0.48994,0.11928 -0.69815,0.35812 l -2.6365,3.0592 c -0.69811,0.7931 -1.343,1.4876 -1.9436,2.0996 0.54642,0.3209 0.91392,0.88 1.0738,1.479 0.9448,-0.92517 1.8867,-1.8472 2.7714,-2.8164 1.58,-1.7515 2.3699,-2.8292 2.3699,-3.2334 0,-0.26334 -0.0949,-0.48704 -0.28474,-0.67076 -0.18985,-0.18368 -0.40718,-0.27544 -0.65215,-0.27544 z m -4.208,8.3065 c -0.1198,0.37861 -0.35227,0.70706 -0.7121,0.92036 -0.23806,0.14112 -0.49325,0.22494 -0.75395,0.25942 l 2.3301,2.3456 c 1.7208,1.6351 3.0467,2.4526 3.9775,2.4526 h 5.3e-4 c 0.26334,0 0.47428,-0.11662 0.63355,-0.34933 0.12851,-0.18985 0.19327,-0.38865 0.19327,-0.59686 0,-0.44705 -0.24226,-0.75024 -0.72605,-0.90951 -0.4042,-0.13473 -0.78058,-0.3367 -1.1296,-0.60616 l -0.9648,-0.80874 c -1.1679,-1.0767 -2.1293,-1.9911 -2.8484,-2.7073 z m -3.6897,0.22945 c -0.0581,2.1426 -0.094,3.9254 -0.094,5.1051 0,0.29396 0.0853,0.56643 0.25683,0.81752 0.20821,0.30626 0.48705,0.45941 0.83612,0.45941 0.53281,0 0.79944,-0.30322 0.79944,-0.90951 l 0.008,-4.5093 c -0.60589,-0.039 -1.2082,-0.32449 -1.664,-0.78342 -0.0525,-0.0621 -0.0988,-0.12148 -0.14262,-0.17983 z m 1.3327,-3.2882 c 2.3372,-0.23457 3.2558,3.0244 1.6449,3.9794 -0.91212,0.5407 -2.0763,0.25255 -2.8349,-0.51137 -0.47304,-0.5593 -0.58893,-0.94548 -0.47004,-1.5638 0.20135,-1.0472 0.88033,-1.826 1.6602,-1.9043 z m -0.26242,2.2887 c 0.15632,0.57954 0.55163,0.71431 1.0437,0.35569 0.48066,-0.35031 0.48385,-0.85836 0.007,-1.1669 -0.46349,-0.30011 -1.1979,0.26667 -1.051,0.81127 z"
         id="path14"
         inkscape:connector-curvature="0"
         style="fill:#ffffff" />
      <path
         d="m 149.3,139.76 c -0.2817,0 -0.52973,-0.0796 -0.74405,-0.23884 -0.24498,-0.18372 -0.36745,-0.41031 -0.36745,-0.67978 -0.2817,-0.741 -0.4593,-1.3442 -0.53279,-1.8096 -0.0734,-0.46544 -0.31538,-1.7852 -0.72571,-3.9592 -0.31232,-1.6474 -0.52054,-2.9702 -0.62465,-3.9684 -0.54503,2.0209 -1.1299,3.7326 -1.7545,5.135 -0.72263,1.6229 -1.1911,2.8936 -1.4055,3.8122 0.0734,0.14079 0.11022,0.27864 0.11022,0.41337 0,0.27558 -0.12248,0.50217 -0.36745,0.67977 -0.22048,0.16532 -0.47157,0.24802 -0.75327,0.24802 -0.82675,0 -1.2401,-0.37051 -1.2401,-1.1115 l -0.28478,-1.1666 -1.0013,-4.5012 c -0.39806,-1.5188 -1.0778,-3.6958 -2.0393,-6.5313 -0.0428,-0.13474 -0.0643,-0.25722 -0.0643,-0.36745 0,-0.56953 0.32152,-0.8543 0.96453,-0.8543 0.39806,0 0.70427,0.2174 0.91862,0.65221 0.11021,0.22047 0.33374,0.85432 0.67058,1.9015 0.36132,1.1084 0.72264,2.4435 1.084,4.0051 l 0.89105,4.0602 c 0.65528,-1.5188 1.3075,-3.3682 1.9566,-5.5484 0.39806,-1.3289 0.7012,-2.2506 0.90941,-2.765 0.55117,-1.3534 1.087,-2.0301 1.6076,-2.0301 0.42869,0 0.73182,0.21741 0.90942,0.65221 0.22046,0.52667 0.444,1.7821 0.67059,3.7663 0.12248,1.0043 0.33069,2.2108 0.62465,3.6193 l 0.78999,3.6101 c 0.82063,-1.9719 1.8464,-4.639 3.0773,-8.001 0.0674,-0.18372 0.22041,-0.76245 0.4593,-1.7362 0.17758,-0.71651 0.39502,-1.2738 0.65222,-1.6719 0.22046,-0.33682 0.50829,-0.50523 0.86349,-0.50523 0.61852,0 1.6424,0.43022 1.6424,1.0426 0,0.10399 -0.8126,0.28624 -1.0086,0.7946 l -0.36743,0.99208 -0.50524,1.6351 -2.7283,6.6323 c -0.25108,0.72876 -0.68283,1.7882 -1.2952,3.1784 -0.22048,0.41031 -0.55117,0.61547 -0.99211,0.61547 z"
         id="path16"
         inkscape:connector-curvature="0"
         style="fill:#ffffff" />
    </g>
    <path
       d="m 159.65,130.84 c -0.14078,1.7821 -0.21128,3.4846 -0.21128,5.1074 0,0.42869 0.0124,0.95842 0.0368,1.5892 0.0245,0.63078 0.0368,1.1605 0.0368,1.5892 -0.62318,1.1566 -1.8502,0.73703 -2.1119,-0.056 0.16496,-2.1389 0.1703,-1.9523 0.16461,-3.003 0,-1.4146 0.0857,-3.1814 0.25722,-5.3004 0.95489,-2.2922 2.3686,-1.8922 2.3686,-1.8922 0.0384,0.75808 -0.57835,1.5531 -0.54077,1.9657 z"
       id="path20"
       inkscape:connector-curvature="0"
       style="fill:#ffffff" />
    <path
       d="m 159.3,124.16 c 2.3372,-0.23457 3.2558,3.0244 1.6449,3.9794 -0.91212,0.5407 -2.0763,0.25255 -2.8349,-0.51137 -0.47293,-0.5593 -0.58893,-0.94548 -0.47004,-1.5638 0.20135,-1.0472 0.88033,-1.826 1.6602,-1.9043 z m -0.26242,2.2887 c 0.15632,0.57954 0.55163,0.71431 1.0437,0.35569 0.48066,-0.35031 0.48385,-0.85836 0.007,-1.1669 -0.46349,-0.30011 -1.1979,0.26667 -1.051,0.81127 z"
       id="path22"
       inkscape:connector-curvature="0"
       style="fill:#ffffff;stroke-width:0.26458001" />
  </g>
  <text
     xml:space="preserve"
     style="font-style:normal;font-weight:normal;font-size:20.1499767px;line-height:1.25;font-family:sans-serif;letter-spacing:0px;word-spacing:0px;fill:#1976d2;fill-opacity:1;stroke:none;stroke-width:0.5037495"
     x="200.7448"
     y="25.49596"
     id="text841"><tspan
       sodipodi:role="line"
       x="200.7448"
       y="25.49596"
       style="font-style:normal;font-variant:normal;font-weight:normal;font-stretch:normal;font-family:'Segoe Print';-inkscape-font-specification:'Segoe Print';text-align:center;text-anchor:middle;fill:#1976d2;fill-opacity:1;stroke-width:0.5037495"
       id="tspan1051">Serial Monitor</tspan><tspan
       sodipodi:role="line"
       x="200.7448"
       y="51.78102"
       style="font-style:normal;font-variant:normal;font-weight:normal;font-stretch:normal;font-family:'Segoe Print';-inkscape-font-specification:'Segoe Print';text-align:center;text-anchor:middle;fill:#1976d2;fill-opacity:1;stroke-width:0.5037495"
       id="tspan5395">Sandbox</tspan></text>
  <g
     style="filter:url(#filter1168)"
     transform="matrix(-1.3323692,-0.34858648,-0.34858648,1.3323692,402.5076,-130.50578)"
     id="g1178"
     inkscape:label="Layer 1" />
  <text
     xml:space="preserve"
     style="font-style:normal;font-weight:normal;font-size:10.583334px;line-height:1.25;font-family:sans-serif;letter-spacing:0px;word-spacing:0px;fill:#000000;fill-opacity:1;stroke:none;stroke-width:0.2645833"
     x="45.43002"
     y="67.96175"
     id="text1028"><tspan
       sodipodi:role="line"
       x="45.43002"
       y="67.96175"
       style="font-style:normal;font-variant:normal;font-weight:normal;font-stretch:normal;line-height:1.5;font-family:Lato;-inkscape-font-specification:Lato;text-align:center;text-anchor:middle;fill:#ffffff;stroke-width:0.2645833"
       id="tspan1030">Learn</tspan><tspan
       sodipodi:role="line"
       x="45.43002"
       y="83.83675"
       style="font-style:normal;font-variant:normal;font-weight:normal;font-stretch:normal;line-height:1.5;font-family:Lato;-inkscape-font-specification:Lato;text-align:center;text-anchor:middle;fill:#ffffff;stroke-width:0.2645833"
       id="tspan1947">Arduino</tspan><tspan
       sodipodi:role="line"
       x="45.43002"
       y="99.71175"
       style="font-style:normal;font-variant:normal;font-weight:normal;font-stretch:normal;line-height:1.5;font-family:Lato;-inkscape-font-specification:Lato;text-align:center;text-anchor:middle;fill:#ffffff;stroke-width:0.2645833"
       id="tspan1032">Programming</tspan><tspan
       sodipodi:role="line"
       x="45.43002"
       y="114.0768"
       style="font-style:normal;font-variant:normal;font-weight:normal;font-stretch:normal;line-height:1.5;font-family:Lato;-inkscape-font-specification:Lato;text-align:center;text-anchor:middle;fill:#ffffff;stroke-width:0.2645833"
       id="tspan1034" /></text>
  <text
     xml:space="preserve"
     style="font-style:normal;font-weight:normal;font-size:12.795228px;line-height:1.25;font-family:sans-serif;letter-spacing:0px;word-spacing:0px;fill:#000000;fill-opacity:1;stroke:none;stroke-width:0.3198806"
     x="131.4387"
     y="82.36609"
     id="text3511"><tspan
       sodipodi:role="line"
       id="tspan3509"
       x="131.4387"
       y="82.36609"
       style="font-style:normal;font-variant:normal;font-weight:normal;font-stretch:normal;font-family:Consolas;-inkscape-font-specification:Consolas;stroke-width:0.3198806"><tspan
   style="fill:#e97366;fill-opacity:1;font-weight:bold"
   id="tspan3527">Serial</tspan>.<tspan
   style="fill:#e97366;fill-opacity:1"
   id="tspan3525">begin</tspan>(<tspan
   style="fill:#09885a;fill-opacity:1"
   id="tspan3531">115200</tspan>);</tspan><tspan
       sodipodi:role="line"
       x="131.4387"
       y="98.93149"
       style="font-style:normal;font-variant:normal;font-weight:normal;font-stretch:normal;font-family:Consolas;-inkscape-font-specification:Consolas;stroke-width:0.3198806"
       id="tspan3515" /><tspan
       sodipodi:role="line"
       x="131.4387"
       y="114.9255"
       style="font-style:normal;font-variant:normal;font-weight:normal;font-stretch:normal;font-family:Consolas;-inkscape-font-specification:Consolas;stroke-width:0.3198806"
       id="tspan3513"><tspan
   style="fill:#e97366;fill-opacity:1;font-weight:bold"
   id="tspan3521">Serial</tspan>.<tspan
   style="fill:#e97366;fill-opacity:1"
   id="tspan3523">println</tspan>(</tspan><tspan
       sodipodi:role="line"
       x="131.4387"
       y="131.4909"
       style="font-style:normal;font-variant:normal;font-weight:normal;font-stretch:normal;font-family:Consolas;-inkscape-font-specification:Consolas;stroke-width:0.3198806"
       id="tspan3517">  <tspan
   style="fill:#a31515;fill-opacity:1"
   id="tspan3533">&quot;Hello, World!&quot;</tspan></tspan><tspan
       sodipodi:role="line"
       x="131.4387"
       y="148.0563"
       style="font-style:normal;font-variant:normal;font-weight:normal;font-stretch:normal;font-family:Consolas;-inkscape-font-specification:Consolas;stroke-width:0.3198806"
       id="tspan3519">);</tspan></text>
  <path
     id="path3535"
     d="m 54.07682,130.108 c -0.94603,0.06 -1.98018,0.461 -3.02934,1.2339 -3.33525,2.4567 -2.78147,4.0992 -10.92142,5.7154 -2.01051,-1.3544 -4.28647,-2.3143 -6.65979,-2.8064 -2.5221,-0.5231 -3.90133,0.3896 -3.68876,3.5887 0.19401,2.9184 0.8539,5.804 1.94837,8.5164 0.68964,1.709 0.38022,1.9861 -0.77556,3.1808 -4.05063,4.1858 -1.65014,11.2681 -1.36603,12.9982 0.0518,0.3145 0.005,0.7355 0.44588,1.0404 0.0397,0.029 0.31352,0.1202 0.32021,0.1385 -1.51759,-4.0958 -2.35727,-12.3919 1.80244,-13.6317 1.39809,-0.4168 2.9645,0.2013 4.14005,0.9389 5.82127,3.6558 2.78932,9.4724 -1.32414,8.0814 -1.24288,-0.4202 -2.21922,-1.4765 -2.68081,-2.7052 -0.11949,-0.3176 -0.47416,-0.7192 -0.69719,-0.4633 -0.3504,0.4022 0.81234,3.4582 3.68195,3.9063 1.11118,0.1726 2.28367,-0.068 3.34964,0.2918 1.66156,0.5596 2.5933,2.3987 4.19809,3.1049 1.4776,0.6503 3.52901,0.251 4.44544,1.8917 0,0 -0.0782,0.2657 -0.1689,0.6283 -0.0473,0.1883 -0.0714,0.3752 -0.14198,0.5567 -0.0314,0.081 -0.0468,0.1804 0.0105,0.2458 0.0559,0.065 0.44041,0.2144 0.54181,0.1072 0.13387,-0.1412 0.1187,-0.2774 0.304,-0.9918 0.0277,-0.1072 0.24291,-0.9182 0.33915,-1.0796 0.70734,-1.1854 1.73456,-2.1829 2.95221,-2.8348 4.22868,-2.2622 7.25044,1.0801 6.89485,3.9048 0.25519,0.1934 0.65275,0.026 0.80123,-0.2589 0.33905,-0.6466 -0.27616,-3.1078 -2.2713,-4.5926 2.86959,-5.0299 2.92737,-5.369 3.57372,-5.5316 0.72664,-0.183 1.36694,0.6356 1.37682,1.385 0.0105,0.7491 -0.36835,1.4412 -0.57831,2.1605 -0.73524,2.5195 0.94065,5.4792 3.47933,6.1449 0.27911,0.065 0.52293,0.044 0.68909,-0.1621 0.081,-0.1019 0.12341,-0.2301 0.12576,-0.3595 0.0557,-3.3039 -1.14718,-6.6148 -3.31303,-9.1108 v 0 c -0.5907,-0.6803 -1.27679,-1.3499 -1.47278,-2.2295 -0.19035,-0.8542 0.12158,-1.7285 0.33237,-2.5778 1.28673,-5.1804 -1.31451,-7.9917 -1.98619,-11.2064 -0.34208,-1.6376 -0.20264,-3.3405 -0.47292,-4.9911 -0.46462,-2.838 -2.12221,-4.3565 -4.20363,-4.225 z m 0.0771,1.0148 c 0.11609,0 0.23009,2e-4 0.34184,0.026 2.3757,0.3723 3.92878,5.1689 2.72395,8.3949 -0.0926,0.2484 -0.11008,0.3993 0.0609,0.6267 1.93327,2.5726 2.41931,3.8119 2.72656,6.9059 0.23166,2.3328 -0.27289,5.2565 -0.69989,6.1977 -0.44057,0.9714 -0.67963,3.8844 -5.32083,6.0979 -3.52691,1.6823 -5.10564,2.3862 -7.50981,2.2795 -2.85521,-0.1255 -6.56697,-2.0831 -6.87733,-2.2821 -0.16603,-0.1072 -0.46732,-0.2274 -0.29185,-0.4458 0.0769,-0.097 0.19061,-0.149 0.27428,-0.2353 0.18564,-0.1909 0.31007,-0.4301 0.47965,-0.6364 0.64318,-0.7826 0.45464,-2.0164 0.1595,-3.09 -0.26939,-0.98 -0.52254,-2.001 -1.2228,-2.7768 -0.21545,-0.2379 -0.38093,-0.5289 -0.61612,-0.754 -0.59962,-0.5739 0.33324,-0.3844 2.04971,-3.4982 0.72868,-1.322 1.32762,-2.1513 1.58895,-5.171 0.0784,-0.907 0.20735,-1.9618 -0.12158,-2.8319 -0.15478,-0.4092 -0.3656,-0.9567 -0.64584,-1.2943 -0.66888,-0.8063 1.13528,-1.1732 1.55925,-1.2906 1.81012,-0.5012 3.71725,-0.7449 4.16698,-0.7444 0.24943,3e-4 0.39601,0.026 0.60667,-0.1595 0.51794,-0.4264 0.86415,-1.2045 1.30657,-1.7225 0.85819,-1.0051 1.78984,-1.916 2.9211,-2.6079 0.63026,-0.3856 1.52748,-0.9397 2.34022,-0.9781 z m 0.24185,1.7254 c -0.52076,-0.031 -1.07501,0.1752 -1.50384,0.4243 -0.86844,0.5062 -1.59076,1.3591 -2.1389,2.1916 -1.00016,1.5189 0.21519,1.6658 0.8215,1.9741 1.66538,0.8469 1.97255,1.0281 2.45775,1.139 1.55625,0.3558 1.95302,-1.2331 1.85785,-2.8077 -0.0353,-0.5822 -0.18434,-1.1444 -0.30401,-1.7118 -0.0878,-0.4162 -0.26575,-0.9096 -0.6864,-1.0932 -0.16054,-0.071 -0.33039,-0.1072 -0.50397,-0.115 z m -0.45939,0.8864 c 0.39431,0.044 0.55747,1.125 0.64584,1.4809 0.16786,0.6756 0.25545,1.3709 0.25389,2.0674 -5.5e-4,0.2617 0.003,0.4377 -0.29455,0.393 -0.27087,-0.042 -1.44271,-0.512 -2.17672,-1.0903 -0.57763,-0.455 -0.93187,-0.5972 -0.42967,-1.2255 0.43939,-0.5496 1.16747,-1.7205 2.00108,-1.6255 z m -21.29978,3.394 c 0.5535,0.026 1.15021,0.2171 1.49169,0.4137 0.43976,0.251 2.00152,0.9263 2.06592,2.5482 0.0408,1.0252 -0.93697,1.9932 -1.69302,2.559 -0.56848,0.4256 -1.06458,0.781 -1.74029,-0.3229 -0.9972,-1.629 -1.11191,-2.564 -1.29441,-3.3497 -0.0881,-0.3791 -0.17701,-0.7802 -0.0622,-1.1525 0.1676,-0.5439 0.67876,-0.712 1.23226,-0.6958 z m 21.71995,9.2651 c -0.46402,0.034 -0.73822,0.3754 -1.10391,0.577 -1.86283,1.0273 -0.52902,2.2034 -0.15531,1.6405 0.27975,-0.4218 0.18172,-0.9369 0.94988,-1.2729 0.73822,-0.3229 0.77781,0.546 1.45791,0.4121 0.52852,-0.1046 0.55326,-0.8652 -0.61073,-1.2728 -0.20735,-0.073 -0.38308,-0.094 -0.53776,-0.084 z m 3.12399,2.7956 c -0.31789,-0.029 -1.28267,0.3179 -1.52547,0.4175 -0.15975,0.065 -0.52965,0.1621 -0.56479,0.3663 -0.035,0.2014 0.14067,0.4879 0.3459,0.5188 0.28131,0.042 0.51843,-0.1961 0.76476,-0.2879 0.20106,-0.073 0.41784,-0.065 0.62558,-0.1072 0.18564,-0.037 0.31473,-0.1333 0.4783,-0.2196 0.0235,0 0.0452,-0.05 0.0513,-0.078 0.0586,-0.2745 0.0986,-0.588 -0.17571,-0.6121 z m -14.43447,0.7391 c -0.83917,0 -1.38164,0.3483 -1.86731,1.3189 -0.15949,0.3184 -0.0829,0.5464 0.24735,0.697 0.11896,0.055 0.33253,-0.029 0.41481,-0.1202 0.0761,-0.086 0.0978,-0.2144 0.1608,-0.3067 0.9308,-1.3693 1.74503,-0.6085 2.10512,-0.5687 0.22747,0.026 0.62317,-0.1255 0.51344,-0.4137 -0.11217,-0.2936 -0.36595,-0.4259 -0.62695,-0.4821 -0.35446,-0.076 -0.66744,-0.1203 -0.94715,-0.1255 z m 15.05049,0.8365 c -0.15401,0 -0.41822,0.1045 -1.47143,0.3702 -0.14485,0.037 -0.30502,0.086 -0.38914,0.2196 -0.0544,0.086 -0.1221,0.285 0.005,0.3365 0.12394,0.05 0.26351,0.097 0.41751,0.05 0.31896,-0.099 0.61837,-0.2868 0.91069,-0.2301 0.24316,-0.026 0.42279,-0.026 0.60126,-0.055 0.0915,-0.026 0.19845,-0.047 0.22016,-0.1229 0.056,-0.1961 0.0157,-0.3817 -0.15139,-0.5216 -0.052,-0.026 -0.0905,-0.042 -0.14198,-0.044 z m -8.37998,0.2431 c -0.69869,0.047 -1.49516,0.3538 -2.02808,1.0527 -0.16682,0.2196 -0.30458,0.4928 -0.24186,0.7606 0.2097,0.8942 1.95341,0.5127 1.94162,1.0728 -0.008,0.3349 0.27993,1.187 0.0837,1.7834 -0.12237,0.3718 -0.21911,0.6984 -0.56207,0.9324 -0.64527,0.4406 -1.51679,0.1621 -2.02134,-0.3608 -0.14302,-0.149 -0.31789,-0.3342 -0.5148,-0.2743 -0.24317,0.073 -0.40891,0.5713 -0.16211,0.946 0.56764,0.8618 3.04973,0.9949 3.47802,0.026 0.14223,-0.3213 0.48546,-0.897 0.90932,-0.8364 0.10145,0.026 0.17884,0.078 0.27833,0.099 h 10e-4 c 0.25519,0.057 1.44956,0.042 1.86459,-0.031 0.2703,-0.05 0.43121,-0.2405 0.62289,-0.416 0.49302,-0.4521 0.74462,-0.4738 0.77827,-1.0715 0.0183,-0.3268 0.21754,-0.9109 -0.18642,-1.0607 -0.27054,-0.099 -0.84114,-0.1072 -0.82286,0.3067 0.0131,0.2988 -0.0376,0.5875 -0.10955,0.8701 -0.22042,0.8694 -2.3905,0.7865 -2.57667,-0.2248 -0.0954,-0.5191 -0.0881,-0.9978 0.14721,-1.4794 0.26436,-0.541 0.74397,-1.1494 0.56074,-1.5889 -0.14172,-0.34 -0.74165,-0.5525 -1.44034,-0.5055 z m 7.43007,2.1119 c -0.24029,0 -0.43683,0.026 -0.52018,0.068 -0.1127,0.065 -0.18957,0.2144 -0.14198,0.342 0.0965,0.2588 0.24133,0.3521 0.50533,0.2891 0.90852,-0.217 0.88875,0.7128 1.59978,-0.047 0.38862,-0.4147 -0.72245,-0.6451 -1.44303,-0.6526 z m -14.36021,0.3433 c -0.1995,-0.026 -1.19519,0.4071 -1.63762,0.862 -0.18825,0.1935 -0.42856,0.6053 0.0607,0.5606 0.20159,-0.026 1.12054,-0.4361 1.28362,-0.5106 0.21257,-0.097 0.46768,-0.1412 0.5256,-0.3975 0.0413,-0.183 -0.002,-0.4886 -0.23245,-0.5145 z m -5.49523,0.4147 c -0.11478,0 -0.19244,0.073 -0.19322,0.1908 -0.005,0.666 0.75488,1.2833 0.94041,1.3442 0.24055,0.078 0.48952,-0.1333 0.50128,-0.3754 0.0105,-0.1987 -0.39423,-0.7029 -0.53506,-0.842 -0.22486,-0.2222 -0.52199,-0.3375 -0.71341,-0.3174 z m -1.85379,0.7946 c -0.1106,0 -0.20394,0.063 -0.25807,0.2562 -0.0907,0.3219 0.28029,0.2118 0.49587,0.7609 0.0667,0.1699 0.0962,0.4018 0.26212,0.52 0.1323,0.094 0.31251,0.034 0.46209,0.026 0.30897,-0.026 0.028,-0.7042 -0.0541,-0.8255 -0.14381,-0.2118 -0.34514,-0.3796 -0.54317,-0.5433 -0.12603,-0.1046 -0.25415,-0.1857 -0.36482,-0.1909 z m 7.22194,0.6591 c -0.56149,0 -1.31457,0.3935 -1.41332,0.9175 -0.0364,0.1935 0.15139,0.5211 0.37698,0.5028 0.0366,0 0.35596,-0.1203 0.48235,-0.3083 0.17989,-0.2667 0.36312,-0.183 0.64315,-0.1804 0.71446,0 0.71417,-0.4892 0.37698,-0.7862 -0.11347,-0.099 -0.27898,-0.1438 -0.46614,-0.1464 z m -9.0556,0.2118 c -0.0635,0 -0.12027,0 -0.16498,0.063 -0.0549,0.065 -0.0416,0.3346 0.0105,0.4042 0.60192,0.7977 0.30826,1.2412 0.68909,1.255 0.43058,0.026 0.53344,-0.6795 0.0311,-1.2929 -0.12916,-0.1569 -0.37575,-0.4045 -0.56612,-0.4283 z m 9.44466,1.5861 c -0.37789,-0.06 -0.71207,0.4756 -0.95121,0.7161 -0.0769,0.078 -0.154,0.1569 -0.20525,0.2536 -0.1778,0.3331 0.15348,0.6702 0.5837,0.5284 0.1825,-0.06 0.38396,-0.196 0.47696,-0.3676 0.12891,-0.2379 0.30916,-0.2379 0.54317,-0.285 0.19741,-0.039 0.40232,-0.1307 0.40535,-0.3621 0.002,-0.1935 -0.0157,-0.2196 -0.1893,-0.3135 -0.20786,-0.1124 -0.43432,-0.1333 -0.66342,-0.1699 z"
     inkscape:connector-curvature="0"
     style="fill:#ffffff;stroke-width:0.0225914" />
</svg>
