<svg width="1200" height="630" version="1.1" viewBox="0 0 317.5 166.69" xmlns="http://www.w3.org/2000/svg" xmlns:xlink="http://www.w3.org/1999/xlink">
 <defs>
  <pattern id="ai" xlink:href="#aw" patternTransform="matrix(1.9277 0 0 1.9277 131.48 78.049)"/>
  <pattern id="aw" x="12.45" y="12.55" width="3.55" height="5.95" patternUnits="userSpaceOnUse">
   <rect width="2.95" height="5.55" fill-opacity=".05"/>
  </pattern>
  <filter id="ax">
   <feGaussianBlur stdDeviation=".50955"/>
  </filter>
  <linearGradient id="b">
   <stop stop-color="#ff0" offset="0"/>
   <stop stop-color="#ff0" stop-opacity="0" offset="1"/>
  </linearGradient>
  <linearGradient id="d" x1="118.71" x2="130.62" y1="153.34" y2="159.02" gradientUnits="userSpaceOnUse" xlink:href="#b"/>
  <linearGradient id="ay" x1="174.3" x2="186.21" y1="242.67" y2="248.34" gradientUnits="userSpaceOnUse" xlink:href="#b"/>
  <linearGradient id="e" x1="135.83" x2="148.89" y1="252.17" y2="256.83" gradientUnits="userSpaceOnUse" xlink:href="#b"/>
  <linearGradient id="a" x1="-7.5136" x2="30.714" y1="99.294" y2="112.92" gradientUnits="userSpaceOnUse" xlink:href="#b"/>
  <linearGradient id="ap" x1="158.23" x2="160.33" y1="128.91" y2="129.92" gradientUnits="userSpaceOnUse" xlink:href="#b"/>
 </defs>
 <rect y="5.25e-6" width="317.5" height="166.69" fill="#fff"/>
 <rect x=".036875" y=".036875" width="91.636" height="166.61" fill="#1976d2" stroke="#c93" stroke-width=".07375"/>
 <g transform="translate(-81.134 -115.14)" fill="#fff">
  <g transform="translate(1.0583)" stroke-width=".26458">
   <path d="m95.357 139.36c-0.63063-0.73733-0.76508-1.8626-0.3206-2.6836 0.40496-0.74801 0.34605-1.1365-0.58255-3.8405-0.93762-2.7303-1.1164-3.0496-1.9348-3.4548-1.9168-0.94902-1.7658-3.4525 0.24143-4.0009 1.8921-0.51705 3.3738 1.386 2.4179 3.1056-0.41617 0.74931-0.36062 1.1128 0.59326 3.8651 0.96902 2.796 1.1255 3.0716 1.9638 3.4568 1.1926 0.54813 1.6205 1.8835 0.96913 3.0246-0.65031 1.1394-2.5661 1.4412-3.3476 0.52754zm1.9118-1.003c0.46456-0.3801 0.42542-0.79596-0.10341-1.0978-0.23785-0.13576-0.54429-0.18595-0.68098-0.11152-0.42252 0.23003-0.40686 1.0139 0.0252 1.2605 0.22572 0.12884 0.56735 0.10586 0.75919-0.0511zm-3.4926-10.357c0.34651-0.18865 0.22405-1.0774-0.18024-1.3081-0.33671-0.19219-0.99428 0.26889-0.97968 0.68691 0.01353 0.38618 0.80904 0.81225 1.1599 0.62119z"/>
   <path d="m103.11 138.83c-0.63064-0.73733-0.76508-1.8626-0.3206-2.6836 0.40496-0.74801 0.34605-1.1365-0.58255-3.8405-0.93762-2.7303-1.1164-3.0496-1.9348-3.4548-1.9168-0.94902-1.7658-3.4525 0.24142-4.0009 1.8921-0.51705 3.3738 1.386 2.4179 3.1056-0.41617 0.74931-0.36062 1.1128 0.59326 3.8651 0.96902 2.796 1.1255 3.0716 1.9638 3.4568 1.1926 0.54813 1.6205 1.8835 0.96913 3.0246-0.65031 1.1394-2.5661 1.4412-3.3476 0.52754zm1.9118-1.003c0.46456-0.3801 0.42542-0.79596-0.10341-1.0978-0.23786-0.13576-0.54429-0.18595-0.68099-0.11152-0.42252 0.23003-0.40686 1.0139 0.0252 1.2605 0.22572 0.12884 0.56735 0.10586 0.75919-0.0511zm-3.4926-10.357c0.34651-0.18865 0.22405-1.0774-0.18024-1.3081-0.33671-0.19219-0.99428 0.26889-0.97968 0.68691 0.0135 0.38618 0.80904 0.81225 1.1599 0.62119z"/>
   <path d="m95.708 140.05c-2.027-1.187-1.3003-4.1847 1.0144-4.1847 0.7506 0 0.81658-0.17688 1.8641-1.169s2.8331-2.6274 4.0355-3.2215c0.32332 0.45905 0.57081 1.6145 0.607 1.7479-0.77291 0-2.7507 1.5148-3.5888 2.5375-0.80994 0.98843-0.98477 1.4007-0.92793 2.188 0.0528 0.73055-0.0809 1.111-0.5411 1.5406-0.77949 0.72771-1.7869 0.95723-2.4632 0.56118zm1.56-1.6951c0.21504-0.5604-0.0251-0.90216-0.63401-0.90216-0.59477 0-0.89658 0.40871-0.69321 0.93871 0.19783 0.51552 1.1252 0.48999 1.3272-0.0366z"/>
   <path d="m104.35 135.89s0.28317-0.56489 1.3917-3.717c1.4404-4.0772 1.5089-4.4064 1.0963-5.2625-0.88721-1.8407 0.83445-3.684 2.6908-2.8809 0.69419 0.30034 0.93102 0.58581 1.236 1.4898 0.33189 0.9839 0.3026 1.1906-0.24399 1.7204-0.34168 0.33116-0.89596 0.71649-1.2317 0.85629-0.47046 0.19599-0.97173 1.2549-2.1856 4.6178-1.4426 3.9967-1.06 2.8174-0.67075 3.5415 0.96203 1.7894-0.25941 0.49189-2.0826-0.36539zm5.0658-9.8494c-6e-3 -0.60021-0.35551-0.82955-0.92164-0.60535-0.25463 0.10083-0.48532 0.30869-0.51265 0.46191-0.0845 0.47361 0.53722 0.95124 0.99974 0.76807 0.24164-0.0957 0.43719-0.37678 0.43455-0.62463z"/>
  </g>
  <path d="m118.62 139.4q-2.378 0.36279-4.2325-0.92219-1.9687-1.3696-2.3075-3.9527-0.41272-3.147 0.97845-5.9848 1.5566-3.1506 4.4406-3.5906 2.7744-0.42327 4.3002 0.71702 1.592 1.1858 1.988 4.2056 0.41271 3.147-0.84107 5.9175-1.4422 3.1703-4.3262 3.6103zm-0.87636-12.586q-2.066 0.31521-3.2086 2.7532-1.0568 2.2394-0.7347 4.6952 0.2302 1.7554 1.5804 2.672 1.2913 0.86063 2.9947 0.60077 2.0492-0.31263 3.0893-2.7443 0.92782-2.1733 0.60218-4.6564-0.28509-2.1738-1.3031-2.9184-0.97108-0.71466-3.0203-0.40203z"/>
  <path d="m127.86 124.81c-0.25722 0-0.47457 0.0917-0.65215 0.27544-0.1715 0.18372-0.25735 0.40742-0.25735 0.67076 0 1.2237-0.0381 3.081-0.10129 5.3542 0.31763-0.50907 0.77309-0.84657 1.2712-0.89658 0.16266-0.0163 0.31758-0.0145 0.46612 1e-3 0.0165-0.48496 0.043-1.0374 0.0822-1.6846 0.0734-1.2554 0.11007-2.18 0.11007-2.774 0-0.26334-0.0891-0.48704-0.26665-0.67076-0.17149-0.18368-0.38884-0.27544-0.65216-0.27544zm6.8254 0.15606c-0.2572 0-0.48994 0.11928-0.69815 0.35812l-2.6365 3.0592c-0.69811 0.7931-1.343 1.4876-1.9436 2.0996 0.54642 0.3209 0.91392 0.88 1.0738 1.479 0.9448-0.92517 1.8867-1.8472 2.7714-2.8164 1.58-1.7515 2.3699-2.8292 2.3699-3.2334 0-0.26334-0.0949-0.48704-0.28474-0.67076-0.18985-0.18368-0.40718-0.27544-0.65215-0.27544zm-4.208 8.3065c-0.1198 0.37861-0.35227 0.70706-0.7121 0.92036-0.23806 0.14112-0.49325 0.22494-0.75395 0.25942l2.3301 2.3456c1.7208 1.6351 3.0467 2.4526 3.9775 2.4526h5.3e-4c0.26334 0 0.47428-0.11662 0.63355-0.34933 0.12851-0.18985 0.19327-0.38865 0.19327-0.59686 0-0.44705-0.24226-0.75024-0.72605-0.90951-0.4042-0.13473-0.78058-0.3367-1.1296-0.60616l-0.9648-0.80874c-1.1679-1.0767-2.1293-1.9911-2.8484-2.7073zm-3.6897 0.22945c-0.0581 2.1426-0.094 3.9254-0.094 5.1051 0 0.29396 0.0853 0.56643 0.25683 0.81752 0.20821 0.30626 0.48705 0.45941 0.83612 0.45941 0.53281 0 0.79944-0.30322 0.79944-0.90951l8e-3 -4.5093c-0.60589-0.039-1.2082-0.32449-1.664-0.78342-0.0525-0.0621-0.0988-0.12148-0.14262-0.17983zm1.3327-3.2882c2.3372-0.23457 3.2558 3.0244 1.6449 3.9794-0.91212 0.5407-2.0763 0.25255-2.8349-0.51137-0.47304-0.5593-0.58893-0.94548-0.47004-1.5638 0.20135-1.0472 0.88033-1.826 1.6602-1.9043zm-0.26242 2.2887c0.15632 0.57954 0.55163 0.71431 1.0437 0.35569 0.48066-0.35031 0.48385-0.85836 7e-3 -1.1669-0.46349-0.30011-1.1979 0.26667-1.051 0.81127z"/>
  <path d="m149.3 139.76c-0.2817 0-0.52973-0.0796-0.74405-0.23884-0.24498-0.18372-0.36745-0.41031-0.36745-0.67978-0.2817-0.741-0.4593-1.3442-0.53279-1.8096-0.0734-0.46544-0.31538-1.7852-0.72571-3.9592-0.31232-1.6474-0.52054-2.9702-0.62465-3.9684-0.54503 2.0209-1.1299 3.7326-1.7545 5.135-0.72263 1.6229-1.1911 2.8936-1.4055 3.8122 0.0734 0.14079 0.11022 0.27864 0.11022 0.41337 0 0.27558-0.12248 0.50217-0.36745 0.67977-0.22048 0.16532-0.47157 0.24802-0.75327 0.24802-0.82675 0-1.2401-0.37051-1.2401-1.1115l-0.28478-1.1666-1.0013-4.5012c-0.39806-1.5188-1.0778-3.6958-2.0393-6.5313-0.0428-0.13474-0.0643-0.25722-0.0643-0.36745 0-0.56953 0.32152-0.8543 0.96453-0.8543 0.39806 0 0.70427 0.2174 0.91862 0.65221 0.11021 0.22047 0.33374 0.85432 0.67058 1.9015 0.36132 1.1084 0.72264 2.4435 1.084 4.0051l0.89105 4.0602c0.65528-1.5188 1.3075-3.3682 1.9566-5.5484 0.39806-1.3289 0.7012-2.2506 0.90941-2.765 0.55117-1.3534 1.087-2.0301 1.6076-2.0301 0.42869 0 0.73182 0.21741 0.90942 0.65221 0.22046 0.52667 0.444 1.7821 0.67059 3.7663 0.12248 1.0043 0.33069 2.2108 0.62465 3.6193l0.78999 3.6101c0.82063-1.9719 1.8464-4.639 3.0773-8.001 0.0674-0.18372 0.22041-0.76245 0.4593-1.7362 0.17758-0.71651 0.39502-1.2738 0.65222-1.6719 0.22046-0.33682 0.50829-0.50523 0.86349-0.50523 0.61852 0 1.6424 0.43022 1.6424 1.0426 0 0.10399-0.8126 0.28624-1.0086 0.7946l-0.36743 0.99208-0.50524 1.6351-2.7283 6.6323c-0.25108 0.72876-0.68283 1.7882-1.2952 3.1784-0.22048 0.41031-0.55117 0.61547-0.99211 0.61547z"/>
  <path d="m159.65 130.84c-0.14078 1.7821-0.21128 3.4846-0.21128 5.1074 0 0.42869 0.0124 0.95842 0.0368 1.5892 0.0245 0.63078 0.0368 1.1605 0.0368 1.5892-0.62318 1.1566-1.8502 0.73703-2.1119-0.056 0.16496-2.1389 0.1703-1.9523 0.16461-3.003 0-1.4146 0.0857-3.1814 0.25722-5.3004 0.95489-2.2922 2.3686-1.8922 2.3686-1.8922 0.0384 0.75808-0.57835 1.5531-0.54077 1.9657z"/>
  <path d="m159.3 124.16c2.3372-0.23457 3.2558 3.0244 1.6449 3.9794-0.91212 0.5407-2.0763 0.25255-2.8349-0.51137-0.47293-0.5593-0.58893-0.94548-0.47004-1.5638 0.20135-1.0472 0.88033-1.826 1.6602-1.9043zm-0.26242 2.2887c0.15632 0.57954 0.55163 0.71431 1.0437 0.35569 0.48066-0.35031 0.48385-0.85836 7e-3 -1.1669-0.46349-0.30011-1.1979 0.26667-1.051 0.81127z" stroke-width=".26458"/>
 </g>
 <text x="200.74478" y="25.495962" fill="#1976d2" font-family="'Segoe Print'" font-size="20.15px" letter-spacing="0px" stroke-width=".50375" text-anchor="middle" word-spacing="0px" style="line-height:1.25" xml:space="preserve"><tspan x="203.49966" y="25.495962" text-align="center">LCD1602 I<tspan baseline-shift="super" fill="#1976d2" font-family="'Segoe Print'" font-size="65%">2</tspan>C </tspan><tspan x="200.74478" y="50.81971" text-align="center">Playground</tspan></text>
 <text x="47.767254" y="74.311737" fill="#ffffff" font-family="Lato" font-size="10.583px" letter-spacing="0px" stroke-width=".26458" text-anchor="middle" word-spacing="0px" style="line-height:1.25" xml:space="preserve"><tspan x="47.767254" y="74.311737" text-align="center">Learn</tspan><tspan x="47.767254" y="87.727905" text-align="center">Arduino</tspan><tspan x="47.767254" y="101.14408" text-align="center">Programming</tspan><tspan x="47.767254" y="114.37325" text-align="center"/></text>
 <g transform="translate(-2.1167 -3.7042)">
  <path d="m125.24 72.667h164.58v85.813h-164.58z" fill="#32cd32" stroke="#000" stroke-width=".83307"/>
  <path d="m289.4 158.06h-163.74v-84.985h163.74z" fill="#008000" stroke-width=".55575"/>
  <g transform="matrix(.55575 0 0 .55575 209.12 62.29)" stroke="#ffd700" stroke-width=".04821">
   <path d="m131.78 151.75c-4.3657 0-7.9062 3.5718-7.9062 7.9375s3.5405 7.875 7.9062 7.875 7.9062-3.5092 7.9062-7.875-3.5405-7.9375-7.9062-7.9375zm0 3.5625c2.4449 0 4.4062 1.9343 4.4062 4.3438s-1.9614 4.375-4.4062 4.375-4.4375-1.9656-4.4375-4.375 1.9926-4.3438 4.4375-4.3438z" fill="#daa520"/>
   <path d="m131.78 151.75c-4.3657 0-7.9062 3.5718-7.9062 7.9375s3.5405 7.875 7.9062 7.875 7.9062-3.5092 7.9062-7.875-3.5405-7.9375-7.9062-7.9375zm0 3.5625c2.4449 0 4.4062 1.9343 4.4062 4.3438s-1.9614 4.375-4.4062 4.375-4.4375-1.9656-4.4375-4.375 1.9926-4.3438 4.4375-4.3438z" fill="url(#d)"/>
  </g>
  <g transform="matrix(.55575 0 0 .55575 28.568 12.648)" stroke="#ffd700" stroke-width=".04821">
   <path d="m187.37 241.07c-4.3657 0-7.9062 3.5718-7.9062 7.9375s3.5405 7.875 7.9062 7.875 7.9062-3.5092 7.9062-7.875-3.5405-7.9375-7.9062-7.9375zm0 3.5625c2.4449 0 4.4062 1.9343 4.4062 4.3438s-1.9614 4.375-4.4062 4.375-4.4375-1.9656-4.4375-4.375 1.9926-4.3438 4.4375-4.3438z" fill="#daa520"/>
   <path d="m187.37 241.07c-4.3657 0-7.9062 3.5718-7.9062 7.9375s3.5405 7.875 7.9062 7.875 7.9062-3.5092 7.9062-7.875-3.5405-7.9375-7.9062-7.9375zm0 3.5625c2.4449 0 4.4062 1.9343 4.4062 4.3438s-1.9614 4.375-4.4062 4.375-4.4375-1.9656-4.4375-4.375 1.9926-4.3438 4.4375-4.3438z" fill="url(#ay)"/>
  </g>
  <g transform="matrix(.55575 0 0 .55575 49.827 -43.824)" stroke="#ffd700" stroke-width=".01975">
   <path d="m145.5 249.66c-1.9286 0-3.4688 1.5799-3.4688 3.5 0 0.12518 0.0184 0.25333 0.0312 0.375v11.125c-0.0129 0.12167-0.0313 0.24981-0.0312 0.375 0 1.9201 1.5714 3.5 3.5 3.5s3.4687-1.5799 3.4688-3.5v-11.875c0-1.9201-1.5714-3.5-3.5-3.5zm0 1.7812c0.96735 1e-5 1.7812 0.76961 1.7812 1.7188s-0.78263 1.7188-1.75 1.7188-1.7812-0.76962-1.7812-1.7188 0.78263-1.7188 1.75-1.7188zm0.0312 11.875c0.96737 0 1.75 0.76961 1.75 1.7188s-0.78266 1.7187-1.75 1.7188-1.7813-0.76962-1.7812-1.7188 0.81386-1.7188 1.7812-1.7188z" fill="#daa520"/>
   <path d="m145.5 249.66c-1.9286 0-3.4688 1.5799-3.4688 3.5 0 0.12518 0.0184 0.25333 0.0312 0.375v11.125c-0.0129 0.12167-0.0313 0.24981-0.0312 0.375 0 1.9201 1.5714 3.5 3.5 3.5s3.4687-1.5799 3.4688-3.5v-11.875c0-1.9201-1.5714-3.5-3.5-3.5zm0 1.7812c0.96735 1e-5 1.7812 0.76961 1.7812 1.7188s-0.78263 1.7188-1.75 1.7188-1.7812-0.76962-1.7812-1.7188 0.78263-1.7188 1.75-1.7188zm0.0312 11.875c0.96737 0 1.75 0.76961 1.75 1.7188s-0.78266 1.7187-1.75 1.7188-1.7813-0.76962-1.7812-1.7188 0.81386-1.7188 1.7812-1.7188z" fill="url(#e)"/>
  </g>
  <path d="m132.7 148.6c1.3588 0 2.4487 1.075 2.4487 2.414 0 1.3391-1.09 2.4314-2.4487 2.4314s-2.4661-1.0924-2.4661-2.4314c0-1.339 1.1074-2.414 2.4661-2.414z" fill="#fff" stroke-width=".55575"/>
  <path d="m282.36 148.61c1.3588 0 2.4487 1.075 2.4487 2.4141s-1.09 2.4314-2.4487 2.4314-2.4661-1.0924-2.4661-2.4314 1.1074-2.4141 2.4661-2.4141z" fill="#fff" stroke-width=".55575"/>
  <path d="m282.36 77.723c1.3587 0 2.4487 1.075 2.4487 2.4141 0 1.3391-1.09 2.4314-2.4487 2.4314-1.3587 0-2.4661-1.0924-2.4661-2.4314 0-1.339 1.1074-2.4141 2.4661-2.4141z" fill="#fff" stroke-width=".55575"/>
  <path d="m130.71 122.89c0.53761 0 0.97255 0.42771 0.97255 0.95522s-0.43496 0.95516-0.97255 0.95522c-0.5376 5e-5 -0.98996-0.42772-0.9899-0.95522 5e-5 -0.5275 0.4523-0.95522 0.9899-0.95522z" fill="#fff" stroke-width=".55575"/>
  <path d="m191.32 151.93v-2.4561l2.3578-2.3578m3.2386 4.8472v-9.795m-50.923-58.341h19.59m60.404 3.8063 2.7787-2.7787m3.1233 2.7443 2.5703-2.5703h33.275m-138.7 33.384-1.9279-3.3392v-21.804l14.877-14.877h131.84l9.6278 9.6278v23.927m-149.62 20.487v-42.637l9.351-9.351h129.66l8.1434 8.1434v35.653m-86.329-38.48 3.3403-3.3403h19.747l2.5052 2.5052m-43.621 2.813 5.4252-3.1322h8.4268m-18.292 3.0683v-2.2596l2.86-1.6512m78.685 63.264 1.8062-1.8062h17.228m-20.629-7.3636v3.8902m3.818-3.9236v2.5009l0.86835 0.86836h18.93m-21.671-3.3359v3.1261l1.4936 1.4936h17.333m-55.3 2.5384 3.786-3.786h23.585l8.6313 8.6313m-23.22 1.9626v-5.3491h3.404m-44.04-4.3209h12.991m10.907 9.8423v-6.2522l4.1334-4.1334m-9.6908 5.4894h2.9871m-3.0205 4.8628v-9.4477m-33.378 9.4755v-4.1681l-3.5143-6.0871m14.607 10.183v-4.1681l-3.503-6.0676m-2.0544 10.208v-4.1681l-3.4803-6.0282m-7.6402 10.196v-4.1681l-3.4441-5.9654m-2.1189 10.133v-4.1681l-3.4481-5.9721v-3.8228m-2.1094 13.963v-4.1681l-3.4647-6.001v-4.0024m-2.0983 14.171v-4.1681l-3.5936-6.2244v-3.7444m-1.9638 14.137v-4.1681l-3.5148-6.0877v-4.0198m64.964-50.426v-2.4561" fill="none" stroke="#080" stroke-opacity=".99482" stroke-width=".55575"/>
  <path transform="matrix(.55575 0 0 .55575 16.518 36.805)" d="m220.55 91.221h246.3v90.396h-246.3z" filter="url(#ax)" stroke="#3c3c3c" stroke-linejoin="bevel" stroke-width="1.5"/>
  <path d="m130.7 116.29c0.53761 0 0.97256 0.4277 0.97256 0.95521s-0.43496 0.95517-0.97256 0.95522c-0.5376 6e-5 -0.98995-0.42771-0.9899-0.95522 6e-5 -0.5275 0.4523-0.95521 0.9899-0.95521z" fill="#fff" stroke-width=".55575"/>
  <g transform="matrix(.55575 0 0 .55575 39.156 -16.076)">
   <path d="m189.58 266.72h226.77a1.5713 1.5713 0 0 1 1.5713 1.5713 1.5713 1.5713 0 0 1-1.5713 1.5713h-226.77a1.5713 1.5713 0 0 1-1.5713-1.5713 1.5713 1.5713 0 0 1 1.5713-1.5713" stroke="#646464" stroke-width=".4"/>
   <path d="m417.91 268.18-229.81 0.6875c0.20774 0.62426 0.8042 1.0938 1.5 1.0938h226.75c0.8705 0 1.5937-0.72325 1.5938-1.5938 0-0.0657-0.0235-0.12394-0.0312-0.1875z" fill="#fff" fill-opacity=".27451"/>
  </g>
  <g transform="matrix(-.55575 0 0 -.55575 375.9 241)">
   <path d="m189.58 266.72h226.77a1.5713 1.5713 0 0 1 1.5713 1.5713 1.5713 1.5713 0 0 1-1.5713 1.5713h-226.77a1.5713 1.5713 0 0 1-1.5713-1.5713 1.5713 1.5713 0 0 1 1.5713-1.5713" stroke="#646464" stroke-width=".4"/>
   <path d="m417.91 268.18-229.81 0.6875c0.20774 0.62426 0.8042 1.0938 1.5 1.0938h226.75c0.8705 0 1.5937-0.72325 1.5938-1.5938 0-0.0657-0.0235-0.12394-0.0312-0.1875z" fill="#fff" fill-opacity=".27451"/>
  </g>
  <g transform="matrix(.55575 0 0 .55575 49.827 -23.439)" stroke="#ffd700" stroke-width=".01975">
   <path d="m145.5 249.66c-1.9286 0-3.4688 1.5799-3.4688 3.5 0 0.12518 0.0184 0.25333 0.0312 0.375v11.125c-0.0129 0.12167-0.0313 0.24981-0.0312 0.375 0 1.9201 1.5714 3.5 3.5 3.5s3.4687-1.5799 3.4688-3.5v-11.875c0-1.9201-1.5714-3.5-3.5-3.5zm0 1.7812c0.96735 1e-5 1.7812 0.76961 1.7812 1.7188s-0.78263 1.7188-1.75 1.7188-1.7812-0.76962-1.7812-1.7188 0.78263-1.7188 1.75-1.7188zm0.0312 11.875c0.96737 0 1.75 0.76961 1.75 1.7188s-0.78266 1.7187-1.75 1.7188-1.7813-0.76962-1.7812-1.7188 0.81386-1.7188 1.7812-1.7188z" fill="#daa520"/>
   <path d="m145.5 249.66c-1.9286 0-3.4688 1.5799-3.4688 3.5 0 0.12518 0.0184 0.25333 0.0312 0.375v11.125c-0.0129 0.12167-0.0313 0.24981-0.0312 0.375 0 1.9201 1.5714 3.5 3.5 3.5s3.4687-1.5799 3.4688-3.5v-11.875c0-1.9201-1.5714-3.5-3.5-3.5zm0 1.7812c0.96735 1e-5 1.7812 0.76961 1.7812 1.7188s-0.78263 1.7188-1.75 1.7188-1.7812-0.76962-1.7812-1.7188 0.78263-1.7188 1.75-1.7188zm0.0312 11.875c0.96737 0 1.75 0.76961 1.75 1.7188s-0.78266 1.7187-1.75 1.7188-1.7813-0.76962-1.7812-1.7188 0.81386-1.7188 1.7812-1.7188z" fill="url(#e)"/>
  </g>
  <path d="m130.71 102.51c0.53761 0 0.97255 0.42771 0.97255 0.95522s-0.43496 0.95516-0.97255 0.95521c-0.5376 6e-5 -0.98996-0.42771-0.9899-0.95521 5e-5 -0.52751 0.4523-0.95522 0.9899-0.95522z" fill="#fff" stroke-width=".55575"/>
  <path d="m130.71 95.911c0.53761 0 0.97255 0.42771 0.97255 0.95522s-0.43496 0.95516-0.97255 0.95522c-0.5376 5.6e-5 -0.98996-0.42771-0.9899-0.95522 5e-5 -0.5275 0.4523-0.95522 0.9899-0.95522z" fill="#fff" stroke-width=".55575"/>
  <path d="m146.83 152.83c0.5376 0 0.97255 0.42771 0.97255 0.95521 0 0.52751-0.43494 0.95522-0.97255 0.95522-0.53762 0-0.9899-0.42771-0.9899-0.95522 0-0.5275 0.45231-0.95521 0.9899-0.95521z" fill="#fff" stroke-width=".55575"/>
  <path d="m152.4 152.83c0.53761 0 0.97256 0.42771 0.97256 0.95521 0 0.52751-0.43494 0.95522-0.97256 0.95522-0.53761 0-0.98989-0.42771-0.98989-0.95522 0-0.5275 0.45231-0.95521 0.98989-0.95521z" fill="#fff" stroke-width=".55575"/>
  <path d="m157.97 152.83c0.53761 0 0.97256 0.42771 0.97256 0.95521 0 0.52751-0.43494 0.95522-0.97256 0.95522-0.53761 0-0.98989-0.42771-0.98989-0.95522 0-0.5275 0.45231-0.95521 0.98989-0.95521z" fill="#fff" stroke-width=".55575"/>
  <path d="m169.1 152.83c0.53761 0 0.97256 0.42771 0.97256 0.95521 0 0.52751-0.43494 0.95522-0.97256 0.95522-0.53761 0-0.98989-0.42771-0.98989-0.95522 0-0.5275 0.45231-0.95521 0.98989-0.95521z" fill="#fff" stroke-width=".55575"/>
  <path d="m163.54 152.83c0.5376 0 0.97256 0.42771 0.97256 0.95521 0 0.52751-0.43494 0.95522-0.97256 0.95522-0.53761 0-0.9899-0.42771-0.9899-0.95522 0-0.5275 0.45232-0.95521 0.9899-0.95521z" fill="#fff" stroke-width=".55575"/>
  <path d="m174.67 152.83c0.5376 0 0.97256 0.42771 0.97256 0.95521 0 0.52751-0.43494 0.95522-0.97256 0.95522-0.53761 0-0.9899-0.42771-0.9899-0.95522 0-0.5275 0.45232-0.95521 0.9899-0.95521z" fill="#fff" stroke-width=".55575"/>
  <path d="m180.24 152.83c0.5376 0 0.97256 0.42771 0.97256 0.95521 0 0.52751-0.43495 0.95522-0.97256 0.95522s-0.9899-0.42771-0.9899-0.95522c0-0.5275 0.45232-0.95521 0.9899-0.95521z" fill="#fff" stroke-width=".55575"/>
  <path d="m185.81 152.83c0.5376 0 0.97256 0.42771 0.97256 0.95521 0 0.52751-0.43495 0.95522-0.97256 0.95522s-0.9899-0.42771-0.9899-0.95522c0-0.5275 0.45231-0.95521 0.9899-0.95521z" fill="#fff" stroke-width=".55575"/>
  <path d="m191.38 152.83c0.5376 0 0.97256 0.42771 0.97256 0.95521 0 0.52751-0.43495 0.95522-0.97256 0.95522s-0.9899-0.42771-0.9899-0.95522c0-0.5275 0.45231-0.95521 0.9899-0.95521z" fill="#fff" stroke-width=".55575"/>
  <path d="m196.95 152.83c0.5376 0 0.97256 0.42771 0.97256 0.95521 0 0.52751-0.43495 0.95522-0.97256 0.95522-0.53762 0-0.9899-0.42771-0.9899-0.95522 0-0.5275 0.45231-0.95521 0.9899-0.95521z" fill="#fff" stroke-width=".55575"/>
  <path d="m202.51 152.83c0.5376 0 0.97256 0.42771 0.97256 0.95521 0 0.52751-0.43495 0.95522-0.97256 0.95522s-0.9899-0.42771-0.9899-0.95522c0-0.5275 0.45231-0.95521 0.9899-0.95521z" fill="#fff" stroke-width=".55575"/>
  <path d="m208.08 152.83c0.5376 0 0.97256 0.42771 0.97256 0.95521 0 0.52751-0.43495 0.95522-0.97256 0.95522-0.53762 0-0.9899-0.42771-0.9899-0.95522 0-0.5275 0.45231-0.95521 0.9899-0.95521z" fill="#fff" stroke-width=".55575"/>
  <path d="m213.65 152.83c0.5376 0 0.97255 0.42771 0.97255 0.95521 0 0.52751-0.43494 0.95522-0.97255 0.95522-0.53762 0-0.9899-0.42771-0.9899-0.95522 0-0.5275 0.45231-0.95521 0.9899-0.95521z" fill="#fff" stroke-width=".55575"/>
  <path d="m219.21 152.83c0.5376 0 0.97255 0.42771 0.97255 0.95521 0 0.52751-0.43494 0.95522-0.97255 0.95522-0.53762 0-0.9899-0.42771-0.9899-0.95522 0-0.5275 0.45231-0.95521 0.9899-0.95521z" fill="#fff" stroke-width=".55575"/>
  <path d="m224.78 152.83c0.53761 0 0.97256 0.42771 0.97256 0.95521 0 0.52751-0.43494 0.95522-0.97256 0.95522-0.53761 0-0.98989-0.42771-0.98989-0.95522 0-0.5275 0.45231-0.95521 0.98989-0.95521z" fill="#fff" stroke-width=".55575"/>
  <path d="m230.35 152.83c0.53761 0 0.97256 0.42771 0.97256 0.95521 0 0.52751-0.43494 0.95522-0.97256 0.95522-0.53761 0-0.98989-0.42771-0.98989-0.95522 0-0.5275 0.45231-0.95521 0.98989-0.95521z" fill="#fff" stroke-width=".55575"/>
  <g transform="matrix(.1899 0 0 .1899 187.42 134.39)" stroke="#ffd700" stroke-width=".05779">
   <path d="m20.837 91.886c-5.6441 0-10.243 4.6236-10.243 10.243 0 0.36634 0.05379 0.74137 0.09145 1.0974v19.205h20.303v-20.303c-3e-5 -5.6192-4.5073-10.243-10.151-10.243zm0 5.2128c2.831 3e-5 5.1214 2.2523 5.1214 5.0299s-2.2904 5.0299-5.1214 5.0299-5.2128-2.2523-5.2128-5.0299 2.3818-5.0299 5.2128-5.0299z" fill="#daa520"/>
   <path d="m20.837 91.886c-5.6441 0-10.243 4.6236-10.243 10.243 0 0.36634 0.05379 0.74137 0.09145 1.0974v19.205h20.303v-20.303c-3e-5 -5.6192-4.5073-10.243-10.151-10.243zm0 5.2128c2.831 3e-5 5.1214 2.2523 5.1214 5.0299s-2.2904 5.0299-5.1214 5.0299-5.2128-2.2523-5.2128-5.0299 2.3818-5.0299 5.2128-5.0299z" fill="url(#a)"/>
  </g>
  <g transform="matrix(.1899 0 0 .1899 192.99 134.39)" stroke="#ffd700" stroke-width=".05779">
   <path d="m20.837 91.886c-5.6441 0-10.243 4.6236-10.243 10.243 0 0.36634 0.05379 0.74137 0.09145 1.0974v19.205h20.303v-20.303c-3e-5 -5.6192-4.5073-10.243-10.151-10.243zm0 5.2128c2.831 3e-5 5.1214 2.2523 5.1214 5.0299s-2.2904 5.0299-5.1214 5.0299-5.2128-2.2523-5.2128-5.0299 2.3818-5.0299 5.2128-5.0299z" fill="#daa520"/>
   <path d="m20.837 91.886c-5.6441 0-10.243 4.6236-10.243 10.243 0 0.36634 0.05379 0.74137 0.09145 1.0974v19.205h20.303v-20.303c-3e-5 -5.6192-4.5073-10.243-10.151-10.243zm0 5.2128c2.831 3e-5 5.1214 2.2523 5.1214 5.0299s-2.2904 5.0299-5.1214 5.0299-5.2128-2.2523-5.2128-5.0299 2.3818-5.0299 5.2128-5.0299z" fill="url(#a)"/>
  </g>
  <g transform="matrix(.1899 0 0 .1899 198.56 134.39)" stroke="#ffd700" stroke-width=".05779">
   <path d="m20.837 91.886c-5.6441 0-10.243 4.6236-10.243 10.243 0 0.36634 0.05379 0.74137 0.09145 1.0974v19.205h20.303v-20.303c-3e-5 -5.6192-4.5073-10.243-10.151-10.243zm0 5.2128c2.831 3e-5 5.1214 2.2523 5.1214 5.0299s-2.2904 5.0299-5.1214 5.0299-5.2128-2.2523-5.2128-5.0299 2.3818-5.0299 5.2128-5.0299z" fill="#daa520"/>
   <path d="m20.837 91.886c-5.6441 0-10.243 4.6236-10.243 10.243 0 0.36634 0.05379 0.74137 0.09145 1.0974v19.205h20.303v-20.303c-3e-5 -5.6192-4.5073-10.243-10.151-10.243zm0 5.2128c2.831 3e-5 5.1214 2.2523 5.1214 5.0299s-2.2904 5.0299-5.1214 5.0299-5.2128-2.2523-5.2128-5.0299 2.3818-5.0299 5.2128-5.0299z" fill="url(#a)"/>
  </g>
  <g transform="matrix(.1899 0 0 .1899 204.13 134.39)" stroke="#ffd700" stroke-width=".05779">
   <path d="m20.837 91.886c-5.6441 0-10.243 4.6236-10.243 10.243 0 0.36634 0.05379 0.74137 0.09145 1.0974v19.205h20.303v-20.303c-3e-5 -5.6192-4.5073-10.243-10.151-10.243zm0 5.2128c2.831 3e-5 5.1214 2.2523 5.1214 5.0299s-2.2904 5.0299-5.1214 5.0299-5.2128-2.2523-5.2128-5.0299 2.3818-5.0299 5.2128-5.0299z" fill="#daa520"/>
   <path d="m20.837 91.886c-5.6441 0-10.243 4.6236-10.243 10.243 0 0.36634 0.05379 0.74137 0.09145 1.0974v19.205h20.303v-20.303c-3e-5 -5.6192-4.5073-10.243-10.151-10.243zm0 5.2128c2.831 3e-5 5.1214 2.2523 5.1214 5.0299s-2.2904 5.0299-5.1214 5.0299-5.2128-2.2523-5.2128-5.0299 2.3818-5.0299 5.2128-5.0299z" fill="url(#a)"/>
  </g>
  <g transform="matrix(.1899 0 0 .1899 209.69 134.39)" stroke="#ffd700" stroke-width=".05779">
   <path d="m20.837 91.886c-5.6441 0-10.243 4.6236-10.243 10.243 0 0.36634 0.05379 0.74137 0.09145 1.0974v19.205h20.303v-20.303c-3e-5 -5.6192-4.5073-10.243-10.151-10.243zm0 5.2128c2.831 3e-5 5.1214 2.2523 5.1214 5.0299s-2.2904 5.0299-5.1214 5.0299-5.2128-2.2523-5.2128-5.0299 2.3818-5.0299 5.2128-5.0299z" fill="#daa520"/>
   <path d="m20.837 91.886c-5.6441 0-10.243 4.6236-10.243 10.243 0 0.36634 0.05379 0.74137 0.09145 1.0974v19.205h20.303v-20.303c-3e-5 -5.6192-4.5073-10.243-10.151-10.243zm0 5.2128c2.831 3e-5 5.1214 2.2523 5.1214 5.0299s-2.2904 5.0299-5.1214 5.0299-5.2128-2.2523-5.2128-5.0299 2.3818-5.0299 5.2128-5.0299z" fill="url(#a)"/>
  </g>
  <g transform="matrix(.1899 0 0 .1899 215.26 134.39)" stroke="#ffd700" stroke-width=".05779">
   <path d="m20.837 91.886c-5.6441 0-10.243 4.6236-10.243 10.243 0 0.36634 0.05379 0.74137 0.09145 1.0974v19.205h20.303v-20.303c-3e-5 -5.6192-4.5073-10.243-10.151-10.243zm0 5.2128c2.831 3e-5 5.1214 2.2523 5.1214 5.0299s-2.2904 5.0299-5.1214 5.0299-5.2128-2.2523-5.2128-5.0299 2.3818-5.0299 5.2128-5.0299z" fill="#daa520"/>
   <path d="m20.837 91.886c-5.6441 0-10.243 4.6236-10.243 10.243 0 0.36634 0.05379 0.74137 0.09145 1.0974v19.205h20.303v-20.303c-3e-5 -5.6192-4.5073-10.243-10.151-10.243zm0 5.2128c2.831 3e-5 5.1214 2.2523 5.1214 5.0299s-2.2904 5.0299-5.1214 5.0299-5.2128-2.2523-5.2128-5.0299 2.3818-5.0299 5.2128-5.0299z" fill="url(#a)"/>
  </g>
  <g transform="matrix(.1899 0 0 .1899 220.83 134.39)" stroke="#ffd700" stroke-width=".05779">
   <path d="m20.837 91.886c-5.6441 0-10.243 4.6236-10.243 10.243 0 0.36634 0.05379 0.74137 0.09145 1.0974v19.205h20.303v-20.303c-3e-5 -5.6192-4.5073-10.243-10.151-10.243zm0 5.2128c2.831 3e-5 5.1214 2.2523 5.1214 5.0299s-2.2904 5.0299-5.1214 5.0299-5.2128-2.2523-5.2128-5.0299 2.3818-5.0299 5.2128-5.0299z" fill="#daa520"/>
   <path d="m20.837 91.886c-5.6441 0-10.243 4.6236-10.243 10.243 0 0.36634 0.05379 0.74137 0.09145 1.0974v19.205h20.303v-20.303c-3e-5 -5.6192-4.5073-10.243-10.151-10.243zm0 5.2128c2.831 3e-5 5.1214 2.2523 5.1214 5.0299s-2.2904 5.0299-5.1214 5.0299-5.2128-2.2523-5.2128-5.0299 2.3818-5.0299 5.2128-5.0299z" fill="url(#a)"/>
  </g>
  <g transform="matrix(.1899 0 0 .1899 226.39 134.39)" stroke="#ffd700" stroke-width=".05779">
   <path d="m20.837 91.886c-5.6441 0-10.243 4.6236-10.243 10.243 0 0.36634 0.05379 0.74137 0.09145 1.0974v19.205h20.303v-20.303c-3e-5 -5.6192-4.5073-10.243-10.151-10.243zm0 5.2128c2.831 3e-5 5.1214 2.2523 5.1214 5.0299s-2.2904 5.0299-5.1214 5.0299-5.2128-2.2523-5.2128-5.0299 2.3818-5.0299 5.2128-5.0299z" fill="#daa520"/>
   <path d="m20.837 91.886c-5.6441 0-10.243 4.6236-10.243 10.243 0 0.36634 0.05379 0.74137 0.09145 1.0974v19.205h20.303v-20.303c-3e-5 -5.6192-4.5073-10.243-10.151-10.243zm0 5.2128c2.831 3e-5 5.1214 2.2523 5.1214 5.0299s-2.2904 5.0299-5.1214 5.0299-5.2128-2.2523-5.2128-5.0299 2.3818-5.0299 5.2128-5.0299z" fill="url(#a)"/>
  </g>
  <g transform="matrix(.1899 0 0 .1899 142.88 134.39)" stroke="#ffd700" stroke-width=".05779">
   <path d="m20.837 91.886c-5.6441 0-10.243 4.6236-10.243 10.243 0 0.36634 0.05379 0.74137 0.09145 1.0974v19.205h20.303v-20.303c-3e-5 -5.6192-4.5073-10.243-10.151-10.243zm0 5.2128c2.831 3e-5 5.1214 2.2523 5.1214 5.0299s-2.2904 5.0299-5.1214 5.0299-5.2128-2.2523-5.2128-5.0299 2.3818-5.0299 5.2128-5.0299z" fill="#daa520"/>
   <path d="m20.837 91.886c-5.6441 0-10.243 4.6236-10.243 10.243 0 0.36634 0.05379 0.74137 0.09145 1.0974v19.205h20.303v-20.303c-3e-5 -5.6192-4.5073-10.243-10.151-10.243zm0 5.2128c2.831 3e-5 5.1214 2.2523 5.1214 5.0299s-2.2904 5.0299-5.1214 5.0299-5.2128-2.2523-5.2128-5.0299 2.3818-5.0299 5.2128-5.0299z" fill="url(#a)"/>
  </g>
  <g transform="matrix(.1899 0 0 .1899 148.44 134.39)" stroke="#ffd700" stroke-width=".05779">
   <path d="m20.837 91.886c-5.6441 0-10.243 4.6236-10.243 10.243 0 0.36634 0.05379 0.74137 0.09145 1.0974v19.205h20.303v-20.303c-3e-5 -5.6192-4.5073-10.243-10.151-10.243zm0 5.2128c2.831 3e-5 5.1214 2.2523 5.1214 5.0299s-2.2904 5.0299-5.1214 5.0299-5.2128-2.2523-5.2128-5.0299 2.3818-5.0299 5.2128-5.0299z" fill="#daa520"/>
   <path d="m20.837 91.886c-5.6441 0-10.243 4.6236-10.243 10.243 0 0.36634 0.05379 0.74137 0.09145 1.0974v19.205h20.303v-20.303c-3e-5 -5.6192-4.5073-10.243-10.151-10.243zm0 5.2128c2.831 3e-5 5.1214 2.2523 5.1214 5.0299s-2.2904 5.0299-5.1214 5.0299-5.2128-2.2523-5.2128-5.0299 2.3818-5.0299 5.2128-5.0299z" fill="url(#a)"/>
  </g>
  <g transform="matrix(.1899 0 0 .1899 154.01 134.39)" stroke="#ffd700" stroke-width=".05779">
   <path d="m20.837 91.886c-5.6441 0-10.243 4.6236-10.243 10.243 0 0.36634 0.05379 0.74137 0.09145 1.0974v19.205h20.303v-20.303c-3e-5 -5.6192-4.5073-10.243-10.151-10.243zm0 5.2128c2.831 3e-5 5.1214 2.2523 5.1214 5.0299s-2.2904 5.0299-5.1214 5.0299-5.2128-2.2523-5.2128-5.0299 2.3818-5.0299 5.2128-5.0299z" fill="#daa520"/>
   <path d="m20.837 91.886c-5.6441 0-10.243 4.6236-10.243 10.243 0 0.36634 0.05379 0.74137 0.09145 1.0974v19.205h20.303v-20.303c-3e-5 -5.6192-4.5073-10.243-10.151-10.243zm0 5.2128c2.831 3e-5 5.1214 2.2523 5.1214 5.0299s-2.2904 5.0299-5.1214 5.0299-5.2128-2.2523-5.2128-5.0299 2.3818-5.0299 5.2128-5.0299z" fill="url(#a)"/>
  </g>
  <g transform="matrix(.1899 0 0 .1899 159.58 134.39)" stroke="#ffd700" stroke-width=".05779">
   <path d="m20.837 91.886c-5.6441 0-10.243 4.6236-10.243 10.243 0 0.36634 0.05379 0.74137 0.09145 1.0974v19.205h20.303v-20.303c-3e-5 -5.6192-4.5073-10.243-10.151-10.243zm0 5.2128c2.831 3e-5 5.1214 2.2523 5.1214 5.0299s-2.2904 5.0299-5.1214 5.0299-5.2128-2.2523-5.2128-5.0299 2.3818-5.0299 5.2128-5.0299z" fill="#daa520"/>
   <path d="m20.837 91.886c-5.6441 0-10.243 4.6236-10.243 10.243 0 0.36634 0.05379 0.74137 0.09145 1.0974v19.205h20.303v-20.303c-3e-5 -5.6192-4.5073-10.243-10.151-10.243zm0 5.2128c2.831 3e-5 5.1214 2.2523 5.1214 5.0299s-2.2904 5.0299-5.1214 5.0299-5.2128-2.2523-5.2128-5.0299 2.3818-5.0299 5.2128-5.0299z" fill="url(#a)"/>
  </g>
  <g transform="matrix(.1899 0 0 .1899 165.15 134.39)" stroke="#ffd700" stroke-width=".05779">
   <path d="m20.837 91.886c-5.6441 0-10.243 4.6236-10.243 10.243 0 0.36634 0.05379 0.74137 0.09145 1.0974v19.205h20.303v-20.303c-3e-5 -5.6192-4.5073-10.243-10.151-10.243zm0 5.2128c2.831 3e-5 5.1214 2.2523 5.1214 5.0299s-2.2904 5.0299-5.1214 5.0299-5.2128-2.2523-5.2128-5.0299 2.3818-5.0299 5.2128-5.0299z" fill="#daa520"/>
   <path d="m20.837 91.886c-5.6441 0-10.243 4.6236-10.243 10.243 0 0.36634 0.05379 0.74137 0.09145 1.0974v19.205h20.303v-20.303c-3e-5 -5.6192-4.5073-10.243-10.151-10.243zm0 5.2128c2.831 3e-5 5.1214 2.2523 5.1214 5.0299s-2.2904 5.0299-5.1214 5.0299-5.2128-2.2523-5.2128-5.0299 2.3818-5.0299 5.2128-5.0299z" fill="url(#a)"/>
  </g>
  <g transform="matrix(.1899 0 0 .1899 170.72 134.39)" stroke="#ffd700" stroke-width=".05779">
   <path d="m20.837 91.886c-5.6441 0-10.243 4.6236-10.243 10.243 0 0.36634 0.05379 0.74137 0.09145 1.0974v19.205h20.303v-20.303c-3e-5 -5.6192-4.5073-10.243-10.151-10.243zm0 5.2128c2.831 3e-5 5.1214 2.2523 5.1214 5.0299s-2.2904 5.0299-5.1214 5.0299-5.2128-2.2523-5.2128-5.0299 2.3818-5.0299 5.2128-5.0299z" fill="#daa520"/>
   <path d="m20.837 91.886c-5.6441 0-10.243 4.6236-10.243 10.243 0 0.36634 0.05379 0.74137 0.09145 1.0974v19.205h20.303v-20.303c-3e-5 -5.6192-4.5073-10.243-10.151-10.243zm0 5.2128c2.831 3e-5 5.1214 2.2523 5.1214 5.0299s-2.2904 5.0299-5.1214 5.0299-5.2128-2.2523-5.2128-5.0299 2.3818-5.0299 5.2128-5.0299z" fill="url(#a)"/>
  </g>
  <g transform="matrix(.1899 0 0 .1899 176.29 134.39)" stroke="#ffd700" stroke-width=".05779">
   <path d="m20.837 91.886c-5.6441 0-10.243 4.6236-10.243 10.243 0 0.36634 0.05379 0.74137 0.09145 1.0974v19.205h20.303v-20.303c-3e-5 -5.6192-4.5073-10.243-10.151-10.243zm0 5.2128c2.831 3e-5 5.1214 2.2523 5.1214 5.0299s-2.2904 5.0299-5.1214 5.0299-5.2128-2.2523-5.2128-5.0299 2.3818-5.0299 5.2128-5.0299z" fill="#daa520"/>
   <path d="m20.837 91.886c-5.6441 0-10.243 4.6236-10.243 10.243 0 0.36634 0.05379 0.74137 0.09145 1.0974v19.205h20.303v-20.303c-3e-5 -5.6192-4.5073-10.243-10.151-10.243zm0 5.2128c2.831 3e-5 5.1214 2.2523 5.1214 5.0299s-2.2904 5.0299-5.1214 5.0299-5.2128-2.2523-5.2128-5.0299 2.3818-5.0299 5.2128-5.0299z" fill="url(#a)"/>
  </g>
  <g transform="matrix(.1899 0 0 .1899 181.85 134.39)" stroke="#ffd700" stroke-width=".05779">
   <path d="m20.837 91.886c-5.6441 0-10.243 4.6236-10.243 10.243 0 0.36634 0.05379 0.74137 0.09145 1.0974v19.205h20.303v-20.303c-3e-5 -5.6192-4.5073-10.243-10.151-10.243zm0 5.2128c2.831 3e-5 5.1214 2.2523 5.1214 5.0299s-2.2904 5.0299-5.1214 5.0299-5.2128-2.2523-5.2128-5.0299 2.3818-5.0299 5.2128-5.0299z" fill="#daa520"/>
   <path d="m20.837 91.886c-5.6441 0-10.243 4.6236-10.243 10.243 0 0.36634 0.05379 0.74137 0.09145 1.0974v19.205h20.303v-20.303c-3e-5 -5.6192-4.5073-10.243-10.151-10.243zm0 5.2128c2.831 3e-5 5.1214 2.2523 5.1214 5.0299s-2.2904 5.0299-5.1214 5.0299-5.2128-2.2523-5.2128-5.0299 2.3818-5.0299 5.2128-5.0299z" fill="url(#a)"/>
  </g>
  <g id="c" transform="matrix(.55575 0 0 .55575 44.637 60.7)">
   <path d="m160.54 128.63c-0.772 0-1.3981 0.63161-1.3981 1.4036s0.6261 1.3926 1.3981 1.3926 1.3981-0.62056 1.3981-1.3926-0.62608-1.4036-1.3981-1.4036z" fill="#daa520" stroke="#ffd700" stroke-width=".00853"/>
   <path d="m160.54 128.63c-0.772 0-1.3981 0.63161-1.3981 1.4036s0.6261 1.3926 1.3981 1.3926 1.3981-0.62056 1.3981-1.3926-0.62608-1.4036-1.3981-1.4036z" fill="url(#ap)" stroke="#ffd700" stroke-width=".00853"/>
   <path d="m160.54 129.32c0.39109 0 0.70484 0.31385 0.70484 0.7048s-0.31375 0.70987-0.70484 0.70987-0.70983-0.31892-0.70983-0.70987 0.31875-0.7048 0.70983-0.7048z" fill="#fff"/>
  </g>
  <use id="az" transform="translate(32.224 9.2349)" width="744.09448" height="1052.3622" xlink:href="#c"/>
  <use id="ba" transform="translate(5.4034)" width="744.09448" height="1052.3622" xlink:href="#az"/>
  <use id="bb" transform="translate(5.747)" width="744.09448" height="1052.3622" xlink:href="#ba"/>
  <use transform="translate(5.5507)" width="744.09448" height="1052.3622" xlink:href="#bb"/>
  <use id="bc" transform="translate(76.927 14.098)" width="744.09448" height="1052.3622" xlink:href="#c"/>
  <use id="bd" transform="translate(55.703 9.1859)" width="744.09448" height="1052.3622" xlink:href="#c"/>
  <use id="be" transform="translate(13.459)" width="744.09448" height="1052.3622" xlink:href="#bd"/>
  <use transform="translate(-9.2838 4.863)" width="744.09448" height="1052.3622" xlink:href="#be"/>
  <use id="f" transform="translate(-2.7017 -4.5192)" width="744.09448" height="1052.3622" xlink:href="#bc"/>
  <use id="g" transform="translate(9.8734 -1.1298)" width="744.09448" height="1052.3622" xlink:href="#f"/>
  <use id="h" transform="translate(-.098245 3.4385)" width="744.09448" height="1052.3622" xlink:href="#g"/>
  <use id="i" transform="translate(15.866 1.5719)" width="744.09448" height="1052.3622" xlink:href="#h"/>
  <use id="w" transform="translate(20.14 3.635)" width="744.09448" height="1052.3622" xlink:href="#i"/>
  <use id="x" transform="translate(-.34385 -2.7999)" width="744.09448" height="1052.3622" xlink:href="#w"/>
  <use id="y" transform="translate(-1.3754 -5.1087)" width="744.09448" height="1052.3622" xlink:href="#x"/>
  <use id="z" transform="translate(21.098 3.0947)" width="744.09448" height="1052.3622" xlink:href="#y"/>
  <use id="ag" transform="translate(.073681 -2.7508)" width="744.09448" height="1052.3622" xlink:href="#z"/>
  <use id="ah" transform="translate(2.849 -1.3017)" width="744.09448" height="1052.3622" xlink:href="#ag"/>
  <use id="aj" transform="translate(4.8139 -16.48)" width="744.09448" height="1052.3622" xlink:href="#ah"/>
  <use id="al" transform="translate(2.4806 -12.354)" width="744.09448" height="1052.3622" xlink:href="#aj"/>
  <use id="am" transform="translate(-15.154 -27.361)" width="744.09448" height="1052.3622" xlink:href="#al"/>
  <use id="an" transform="translate(-39.289 -.40911)" width="744.09448" height="1052.3622" xlink:href="#am"/>
  <use id="aq" transform="translate(-8.6108 .63066)" width="744.09448" height="1052.3622" xlink:href="#an"/>
  <use id="ar" transform="translate(-12.101 -.81523)" width="744.09448" height="1052.3622" xlink:href="#aq"/>
  <use id="as" transform="translate(-13.119 .81523)" width="744.09448" height="1052.3622" xlink:href="#ar"/>
  <use id="at" transform="translate(-4.4785 -.65945)" width="744.09448" height="1052.3622" xlink:href="#as"/>
  <use id="au" transform="translate(-15.095 -1.1094)" width="744.09448" height="1052.3622" xlink:href="#at"/>
  <use id="av" transform="translate(-9.7045 .34385)" width="744.09448" height="1052.3622" xlink:href="#au"/>
  <use transform="translate(-20.15)" width="744.09448" height="1052.3622" xlink:href="#av"/>
  <g transform="matrix(.55575 0 0 .55575 209.12 -8.5983)" stroke="#ffd700" stroke-width=".04821">
   <path d="m131.78 151.75c-4.3657 0-7.9062 3.5718-7.9062 7.9375s3.5405 7.875 7.9062 7.875 7.9062-3.5092 7.9062-7.875-3.5405-7.9375-7.9062-7.9375zm0 3.5625c2.4449 0 4.4062 1.9343 4.4062 4.3438s-1.9614 4.375-4.4062 4.375-4.4375-1.9656-4.4375-4.375 1.9926-4.3438 4.4375-4.3438z" fill="#daa520"/>
   <path d="m131.78 151.75c-4.3657 0-7.9062 3.5718-7.9062 7.9375s3.5405 7.875 7.9062 7.875 7.9062-3.5092 7.9062-7.875-3.5405-7.9375-7.9062-7.9375zm0 3.5625c2.4449 0 4.4062 1.9343 4.4062 4.3438s-1.9614 4.375-4.4062 4.375-4.4375-1.9656-4.4375-4.375 1.9926-4.3438 4.4375-4.3438z" fill="url(#d)"/>
  </g>
  <path d="m132.7 77.723c1.3587 0 2.4487 1.075 2.4487 2.4141 0 1.3391-1.09 2.4314-2.4487 2.4314s-2.4661-1.0924-2.4661-2.4314c0-1.339 1.1074-2.4141 2.4661-2.4141z" fill="#fff" stroke-width=".55575"/>
  <g transform="matrix(.55575 0 0 .55575 59.462 -8.5983)" stroke="#ffd700" stroke-width=".04821">
   <path d="m131.78 151.75c-4.3657 0-7.9062 3.5718-7.9062 7.9375s3.5405 7.875 7.9062 7.875 7.9062-3.5092 7.9062-7.875-3.5405-7.9375-7.9062-7.9375zm0 3.5625c2.4449 0 4.4062 1.9343 4.4062 4.3438s-1.9614 4.375-4.4062 4.375-4.4375-1.9656-4.4375-4.375 1.9926-4.3438 4.4375-4.3438z" fill="#daa520"/>
   <path d="m131.78 151.75c-4.3657 0-7.9062 3.5718-7.9062 7.9375s3.5405 7.875 7.9062 7.875 7.9062-3.5092 7.9062-7.875-3.5405-7.9375-7.9062-7.9375zm0 3.5625c2.4449 0 4.4062 1.9343 4.4062 4.3438s-1.9614 4.375-4.4062 4.375-4.4375-1.9656-4.4375-4.375 1.9926-4.3438 4.4375-4.3438z" fill="url(#d)"/>
  </g>
  <g transform="translate(-1.9252 -.72098)">
   <rect x="146.04" y="97.905" width="127.23" height="30.844" rx="2.8916" ry="2.8916" fill="#6cb201" stroke-width="1.9277"/>
   <rect x="146.04" y="97.905" width="127.23" height="30.844" rx="2.8916" ry="2.8916" opacity="0" stroke-width="1.9277"/>
   <rect x="155.48" y="102.24" width="108.34" height="22.169" fill="url(#ai)" stroke-width="1.9277"/>
   <path d="m162.33 102.24h1.0602v1.253h-1.0602zm0 1.3494h1.0602v1.253h-1.0602zm0 1.3494h1.0602v1.253h-1.0602zm0 1.3494h1.0602v1.253h-1.0602zm0 1.3494h1.0602v1.253h-1.0602zm0 1.3494h1.0602v1.253h-1.0602zm0 1.3494h1.0602v1.253h-1.0602zm1.1566 0h1.0602v1.253h-1.0602zm1.1566 0h1.0603v1.253h-1.0603zm1.1566 0h1.0603v1.253h-1.0603zm1.1566 0h1.0603v1.253h-1.0603zm3.3735-8.0965h1.0602v1.253h-1.0602zm1.1566 0h1.0602v1.253h-1.0602zm1.1566 0h1.0602v1.253h-1.0602zm-3.4699 1.3494h1.0602v1.253h-1.0602zm4.6266 0h1.0603v1.253h-1.0603zm-4.6266 1.3494h1.0602v1.253h-1.0602zm0 1.3494h1.0602v1.253h-1.0602zm0 1.3494h1.0602v1.253h-1.0602zm0 1.3494h1.0602v1.253h-1.0602zm4.6266 0h1.0603v1.253h-1.0603zm-3.4699 1.3494h1.0602v1.253h-1.0602zm1.1566 0h1.0602v1.253h-1.0602zm1.1566 0h1.0602v1.253h-1.0602zm3.3735-8.0965h1.0602v1.253h-1.0602zm1.1566 0h1.0602v1.253h-1.0602zm1.1566 0h1.0602v1.253h-1.0602zm-2.3133 1.3494h1.0602v1.253h-1.0602zm3.4699 0h1.0602v1.253h-1.0602zm-3.4699 1.3494h1.0602v1.253h-1.0602zm4.6266 0h1.0602v1.253h-1.0602zm-4.6266 1.3494h1.0602v1.253h-1.0602zm4.6266 0h1.0602v1.253h-1.0602zm-4.6266 1.3494h1.0602v1.253h-1.0602zm4.6266 0h1.0602v1.253h-1.0602zm-4.6266 1.3494h1.0602v1.253h-1.0602zm3.4699 0h1.0602v1.253h-1.0602zm-3.4699 1.3494h1.0602v1.253h-1.0602zm1.1566 0h1.0602v1.253h-1.0602zm1.1566 0h1.0602v1.253h-1.0602zm6.8435-8.0965h1.0602v1.253h-1.0602zm-1.1566 1.3494h1.0603v1.253h-1.0603zm1.1566 0h1.0602v1.253h-1.0602zm0 1.3494h1.0602v1.253h-1.0602zm0 1.3494h1.0602v1.253h-1.0602zm0 1.3494h1.0602v1.253h-1.0602zm0 1.3494h1.0602v1.253h-1.0602zm-1.1566 1.3494h1.0603v1.253h-1.0603zm1.1566 0h1.0602v1.253h-1.0602zm1.1566 0h1.0602v1.253h-1.0602zm5.6868-8.0965h1.0603v1.253h-1.0603zm1.1566 0h1.0603v1.253h-1.0603zm-2.3133 1.3494h1.0603v1.253h-1.0603zm-1.1566 1.3494h1.0603v1.253h-1.0603zm0 1.3494h1.0603v1.253h-1.0603zm1.1566 0h1.0603v1.253h-1.0603zm1.1566 0h1.0603v1.253h-1.0603zm1.1566 0h1.0603v1.253h-1.0603zm-3.4699 1.3494h1.0603v1.253h-1.0603zm4.6266 0h1.0603v1.253h-1.0603zm-4.6266 1.3494h1.0603v1.253h-1.0603zm4.6266 0h1.0603v1.253h-1.0603zm-3.4699 1.3494h1.0603v1.253h-1.0603zm1.1566 0h1.0603v1.253h-1.0603zm1.1566 0h1.0603v1.253h-1.0603zm4.5302-8.0965h1.0602v1.253h-1.0602zm1.1566 0h1.0603v1.253h-1.0603zm1.1566 0h1.0603v1.253h-1.0603zm-3.4699 1.3494h1.0602v1.253h-1.0602zm4.6266 0h1.0603v1.253h-1.0603zm-4.6266 1.3494h1.0602v1.253h-1.0602zm3.4699 0h1.0603v1.253h-1.0603zm1.1566 0h1.0603v1.253h-1.0603zm-4.6266 1.3494h1.0602v1.253h-1.0602zm2.3133 0h1.0603v1.253h-1.0603zm2.3133 0h1.0603v1.253h-1.0603zm-4.6266 1.3494h1.0602v1.253h-1.0602zm1.1566 0h1.0602v1.253h-1.0602zm3.4699 0h1.0603v1.253h-1.0603zm-4.6266 1.3494h1.0602v1.253h-1.0602zm4.6266 0h1.0603v1.253h-1.0603zm-3.4699 1.3494h1.0602v1.253h-1.0602zm1.1566 0h1.0603v1.253h-1.0603zm1.1566 0h1.0603v1.253h-1.0603zm4.5302-8.0965h1.0602v1.253h-1.0602zm1.1566 0h1.0602v1.253h-1.0602zm1.1566 0h1.0602v1.253h-1.0602zm-3.4699 1.3494h1.0602v1.253h-1.0602zm4.6266 0h1.0602v1.253h-1.0602zm0 1.3494h1.0602v1.253h-1.0602zm-1.1566 1.3494h1.0602v1.253h-1.0602zm-1.1566 1.3494h1.0602v1.253h-1.0602zm-1.1566 1.3494h1.0602v1.253h-1.0602zm-1.1566 1.3494h1.0602v1.253h-1.0602zm1.1566 0h1.0602v1.253h-1.0602zm1.1566 0h1.0602v1.253h-1.0602zm1.1566 0h1.0602v1.253h-1.0602zm1.1566 0h1.0602v1.253h-1.0602zm-30.844 3.3735h1.0602v1.253h-1.0602zm1.1566 0h1.0602v1.253h-1.0602zm1.1566 0h1.0602v1.253h-1.0602zm1.1566 0h1.0602v1.253h-1.0602zm-4.6266 1.3494h1.0602v1.253h-1.0602zm0 1.3494h1.0602v1.253h-1.0602zm1.1566 1.3494h1.0602v1.253h-1.0602zm1.1566 0h1.0602v1.253h-1.0602zm1.1566 0h1.0602v1.253h-1.0602zm1.1566 1.3494h1.0602v1.253h-1.0602zm0 1.3494h1.0602v1.253h-1.0602zm-4.6266 1.3494h1.0602v1.253h-1.0602zm1.1566 0h1.0602v1.253h-1.0602zm1.1566 0h1.0602v1.253h-1.0602zm1.1566 0h1.0602v1.253h-1.0602zm5.6868-8.0965h1.0602v1.253h-1.0602zm-1.1566 2.6988h1.0603v1.253h-1.0603zm1.1566 0h1.0602v1.253h-1.0602zm0 1.3494h1.0602v1.253h-1.0602zm0 1.3494h1.0602v1.253h-1.0602zm0 1.3494h1.0602v1.253h-1.0602zm-1.1566 1.3494h1.0603v1.253h-1.0603zm1.1566 0h1.0602v1.253h-1.0602zm1.1566 0h1.0602v1.253h-1.0602zm3.3735-5.3976h1.0603v1.253h-1.0603zm1.1566 0h1.0603v1.253h-1.0603zm2.3133 0h1.0603v1.253h-1.0603zm-3.4699 1.3494h1.0603v1.253h-1.0603zm2.3133 0h1.0603v1.253h-1.0603zm2.3133 0h1.0603v1.253h-1.0603zm-4.6266 1.3494h1.0603v1.253h-1.0603zm2.3133 0h1.0603v1.253h-1.0603zm2.3133 0h1.0603v1.253h-1.0603zm-4.6266 1.3494h1.0603v1.253h-1.0603zm4.6266 0h1.0603v1.253h-1.0603zm-4.6266 1.3494h1.0603v1.253h-1.0603zm4.6266 0h1.0603v1.253h-1.0603zm2.2169-5.3976h1.0602v1.253h-1.0602zm4.6266 0h1.0603v1.253h-1.0603zm-4.6266 1.3494h1.0602v1.253h-1.0602zm4.6266 0h1.0603v1.253h-1.0603zm-4.6266 1.3494h1.0602v1.253h-1.0602zm4.6266 0h1.0603v1.253h-1.0603zm-4.6266 1.3494h1.0602v1.253h-1.0602zm3.4699 0h1.0603v1.253h-1.0603zm1.1566 0h1.0603v1.253h-1.0603zm-3.4699 1.3494h1.0602v1.253h-1.0602zm1.1566 0h1.0603v1.253h-1.0603zm2.3133 0h1.0603v1.253h-1.0603zm3.3735-8.0965h1.0602v1.253h-1.0602zm1.1566 0h1.0602v1.253h-1.0602zm0 1.3494h1.0602v1.253h-1.0602zm0 1.3494h1.0602v1.253h-1.0602zm0 1.3494h1.0602v1.253h-1.0602zm0 1.3494h1.0602v1.253h-1.0602zm0 1.3494h1.0602v1.253h-1.0602zm-1.1566 1.3494h1.0602v1.253h-1.0602zm1.1566 0h1.0602v1.253h-1.0602zm1.1566 0h1.0602v1.253h-1.0602zm4.5302-5.3976h1.0602v1.253h-1.0602zm1.1566 0h1.0602v1.253h-1.0602zm1.1566 0h1.0602v1.253h-1.0602zm1.1566 1.3494h1.0602v1.253h-1.0602zm-3.4699 1.3494h1.0602v1.253h-1.0602zm1.1566 0h1.0602v1.253h-1.0602zm1.1566 0h1.0602v1.253h-1.0602zm1.1566 0h1.0602v1.253h-1.0602zm-4.6266 1.3494h1.0602v1.253h-1.0602zm4.6266 0h1.0602v1.253h-1.0602zm-3.4699 1.3494h1.0602v1.253h-1.0602zm1.1566 0h1.0602v1.253h-1.0602zm1.1566 0h1.0602v1.253h-1.0602zm1.1566 0h1.0602v1.253h-1.0602zm3.3735-8.0965h1.0603v1.253h-1.0603zm0 1.3494h1.0603v1.253h-1.0603zm-1.1566 1.3494h1.0603v1.253h-1.0603zm1.1566 0h1.0603v1.253h-1.0603zm1.1566 0h1.0602v1.253h-1.0602zm-1.1566 1.3494h1.0603v1.253h-1.0603zm0 1.3494h1.0603v1.253h-1.0603zm0 1.3494h1.0603v1.253h-1.0603zm3.4699 0h1.0602v1.253h-1.0602zm-2.3133 1.3494h1.0602v1.253h-1.0602zm1.1566 0h1.0602v1.253h-1.0602zm4.5302-5.3976h1.0603v1.253h-1.0603zm1.1566 0h1.0603v1.253h-1.0603zm1.1566 0h1.0603v1.253h-1.0603zm-3.4699 1.3494h1.0603v1.253h-1.0603zm4.6266 0h1.0603v1.253h-1.0603zm-4.6266 1.3494h1.0603v1.253h-1.0603zm4.6266 0h1.0603v1.253h-1.0603zm-4.6266 1.3494h1.0603v1.253h-1.0603zm4.6266 0h1.0603v1.253h-1.0603zm-3.4699 1.3494h1.0603v1.253h-1.0603zm1.1566 0h1.0603v1.253h-1.0603zm1.1566 0h1.0603v1.253h-1.0603zm3.3735-5.3976h1.0602v1.253h-1.0602zm2.3133 0h1.0602v1.253h-1.0602zm1.1566 0h1.0603v1.253h-1.0603zm-3.4699 1.3494h1.0602v1.253h-1.0602zm1.1566 0h1.0602v1.253h-1.0602zm3.4699 0h1.0603v1.253h-1.0603zm-4.6266 1.3494h1.0602v1.253h-1.0602zm0 1.3494h1.0602v1.253h-1.0602zm0 1.3494h1.0602v1.253h-1.0602zm9.1567-8.0965h1.0602v1.253h-1.0602zm0 1.3494h1.0602v1.253h-1.0602zm0 1.3494h1.0602v1.253h-1.0602zm0 1.3494h1.0602v1.253h-1.0602zm0 4.0482h1.0602v1.253h-1.0602z" stroke-width="3.7162"/>
  </g>
 </g>
</svg>
